<?xml version="1.0" encoding="utf-8"?>
<!-- Generator: Adobe Illustrator 16.0.0, SVG Export Plug-In . SVG Version: 6.00 Build 0)  -->
<!DOCTYPE svg PUBLIC "-//W3C//DTD SVG 1.0//EN" "http://www.w3.org/TR/2001/REC-SVG-20010904/DTD/svg10.dtd">
<svg version="1.0" id="Layer_1" xmlns="http://www.w3.org/2000/svg" xmlns:xlink="http://www.w3.org/1999/xlink" x="0px" y="0px"
	 width="500px" height="500px" viewBox="0 0 500 500" enable-background="new 0 0 500 500" xml:space="preserve">
<rect x="-14" y="-11" fill="#CC9932" stroke="#8E7C93" stroke-miterlimit="10" width="537" height="522"/>
<g>
	<path fill="#8F7D94" d="M-0.535,286.392c0-2.198,0-4.392,0-6.589c2.157-2.996,5.065-2.649,8.272-2.216
		c18.532,2.502,25.131-1.865,30.571-20.123c2.319-7.781,4.56-15.583,4.042-23.875c-0.538-8.597-4.402-12.189-12.802-10.527
		c-7.961,1.575-16.141,2.103-23.893,4.679c-2.235,0.743-4.268,0.94-6.19-0.644c0-2.196,0-4.39,0-6.588
		c2.366-4.707,6.346-6.297,11.376-5.909c0.868,0.067,1.758,0.003,2.623-0.134c2.574-0.408,5.574-0.363,6.792-3.164
		c1.261-2.899-0.949-4.963-2.68-6.89c-3.22-3.582-6.604-7.033-10.209-10.213c-3.411-3.01-6.274-6.305-7.902-10.583
		c0-2.636,0-5.271,0-7.906c3.45-2.155,5.278,0.946,7.386,2.481c8.933,6.515,16.171,14.774,23.303,23.122
		c1.282,1.503,2.523,3.047,4.19,4.165c4.938,3.311,8.776,1.906,9.214-3.909c0.777-10.343,4.968-18.928,11.938-26.401
		c4.441-4.761,7.282-10.414,8.635-16.777c1.606-7.568-0.913-11.04-7.729-14.537c-12.032-6.173-24.429-3.792-36.762-2.574
		c-6.711,0.664-8.963,7.219-12.777,11.59c-1.989,2.279-3.495,5.48-7.396,3.075c0-3.513,0-7.027,0-10.541
		c3.385-7.026,5.99-14.055,0-21.081c0-3.515,0-7.027,0-10.542c2.217-1.761,4.064-0.81,5.848,0.773
		c2.618,2.322,5.489,4.307,7.947,6.874c7.942,8.296,19.462,8.047,26.337-1.025c5.55-7.325,12.036-13.104,20.027-17.647
		c7.93-4.508,7.58-9.169-0.424-13.938c-2.828-1.684-5.827-3.081-8.54-4.958c-6.725-4.653-13.775-7.714-22.214-5.187
		c-1.431,0.431-3.104,0.375-4.589,0.096c-7.959-1.485-14.78-0.31-19.347,7.295c-1.041,1.732-2.84,2.849-5.044,1.365
		c0-3.514,0-7.027,0-10.541c3.532-7.906,0.819-15.812,0-23.719c0-6.587,0-13.174,0-19.763c2.834-1.647,4.388-0.013,5.947,2.133
		c3.751,5.168,5.32,10.853,5.308,17.253c-0.021,11.227,4.423,15.708,15.507,15.412c8.568-0.23,17.042-1.833,25.299-4.085
		c6.664-1.816,8.338-5.948,4.866-12.035c-3.503-6.14-6.41-12.379-8.122-19.295c-1.397-5.648-4.447-6.808-10.701-4.816
		c-11.03,3.51-22.099,2.41-33.211,0.621c-2.127-0.343-3.511-1.672-4.894-3.093c0-1.317,0-2.636,0-3.954
		c3.713-4.515,8.942-3.851,13.447-2.824c12.737,2.905,23.203-2.196,33.675-8.095c4.721-2.657,5.881-8.106,9.618-11.481
		c2.198,0,4.398,0,6.597,0c2.458,1.367,4.5,3.255,6.625,5.068c11.514,9.826,26.318,9.983,37.925,0.258
		c2.564-2.147,5.353-3.763,8.234-5.326c1.319,0,2.638,0,3.958,0c2.627,2.174,1.897,4.562,0.502,7.043
		c-2.652,4.721-6.42,8.369-11.095,10.965c-5.434,3.016-7.161,7.391-5.641,13.241c1.488,5.727,2.984,11.447,4.929,17.044
		c1.629,4.695,4.987,6.618,9.734,5.683c8.392-1.649,16.856-3.112,24.944-5.966c10.817-3.814,15.897-11.59,15.739-23.132
		c-0.079-5.71-1.75-11.245-1.479-17.002c0.169-3.585,0.981-6.453,4.591-7.876c1.32,0,2.64,0,3.96,0
		c1.394,1.391,2.983,2.7,3.004,4.893c0.097,10.182,2.363,20.311-1.22,30.529c-4.076,11.626,4.006,19.816,16.131,17.02
		c3.205-0.738,6.293-1.897,9.413-2.938c3.706-1.238,6.057-3.732,6.19-7.642c0.197-5.716,3.237-9.806,6.965-13.664
		c7.065-7.309,6.877-11.657-0.739-18.531c-1.945-1.753-4.225-3.152-5.704-5.397c-0.979-1.49-0.681-2.9,0.267-4.27
		c2.64,0,5.279,0,7.917,0c6.191,1.769,9.522,6.73,13.14,11.485c6.459,8.487,10.429,9.051,19.296,3.354
		c6.542-4.203,12.132-9.502,17.708-14.839c2.197,0,4.396,0,6.597,0c5.641,4.035,6.333,10.48,7.897,16.437
		c3.975,15.148,3.878,15.041,18.777,10.05c8.399-2.812,15.409-6.897,19.714-15.17c2.53-4.868,7.164-8.17,11.672-11.317
		c29.03,0,58.062,0,87.092,0c13.467,8.597,26.101,18.336,37.994,28.941c9.891,8.822,16.86,8.226,23.267-3.549
		c3.882-7.133,8.642-13.677,12.726-20.654c1.287-2.202,3.102-3.549,5.188-4.738c1.317,0,2.64,0,3.957,0
		c4.585,1.795,4.861,5.599,4.261,9.597c-0.735,4.882,0.257,9.156,3.656,12.803c0,1.757,0,3.515,0,5.271
		c-1.408,1.318-1.083,2.636,0,3.953c0,5.271,0,10.541,0,15.812c-4.332,1.494-4.565-2.311-5.657-4.602
		c-4.473-9.394-7.115-10.297-15.281-4.142c-5.146,3.881-10.517,7.092-16.739,8.863c-4.914,1.397-8.494,4.469-10.701,9.085
		c-2.286,4.78-6.139,8.552-8.52,13.269c-2.876,5.694-2.329,8.682,2.819,12.472c5.655,4.16,11.266,8.317,16.516,13.022
		c6.937,6.219,18.782,4.688,24.722-2.703c2.619-3.259,4.372-7.086,6.868-10.435c1.587-2.132,3.2-3.717,5.974-1.887
		c0,3.072,0,6.149,0,9.222c-3.604,7.906-4.098,15.812,0,23.718c0,3.515,0,7.027,0,10.542c-4.894,2.684-6.862-1.616-8.905-4.253
		c-4.084-5.27-9.208-7.726-15.727-8.293c-7.764-0.678-13.824,1.551-17.638,8.656c-0.413,0.767-0.848,1.609-1.486,2.161
		c-15.75,13.555-8.987,30.017-5.582,45.785c1.269,5.874,6.139,7.371,10.524,3.178c9.979-9.533,23.501-13.721,33.485-23.091
		c1.631-1.531,3.426-1.877,5.328-0.427c0,3.953,0,7.906,0,11.859c-2.455,5.271-2.455,10.541,0,15.812c0,2.197,0,4.392,0,6.588
		c-3.212,3.069-4.978,0.403-6.913-1.714c-9.114-9.958-15.386-9.802-23.557,1c-4.086,5.403-8.187,10.79-12.405,16.088
		c-4.305,5.407-4.458,11.082-1.494,17.169c5.691,11.689,22.727,19.326,35.042,10.15c2.598-1.938,5.496-4.975,9.327-1.847
		c0,1.756,0,3.513,0,5.27c-0.836,1-1.077,2.449-2.139,3.229c-9.593,7.052-8.312,17.179-7.803,27.119
		c0.124,2.399,0.142,4.818-0.023,7.21c-0.348,4.974,0.448,9.221,6.014,10.92c2.11,0.645,2.424,3.013,3.951,4.228
		c0,1.756,0,3.515,0,5.271c-1.888,2.499-4.612,2.964-7.52,3.429c-18.9,3.018-25.619,10.395-27.537,29.453
		c-0.619,6.16-0.994,12.033,1.462,18.059c5.537,13.572,10.41,16.442,24.731,13.146c3.354-0.773,6.462-1.554,8.863,1.794
		c0,1.318,0,2.636,0,3.953c-2.865,5.701-8.808,7.134-13.926,9.004c-9.048,3.312-12.664,9.159-11.904,18.521
		c0.388,4.762,0.012,9.582-0.327,14.381c-0.524,7.438,2.696,10.863,10.201,11.408c1.96,0.144,3.934,0.161,5.896,0.111
		c4.598-0.118,8.054,1.612,10.06,5.869c0,1.756,0,3.515,0,5.271c-1.802,2.369-4.094,2.016-6.536,1.258
		c-9.367-2.908-17.777-1.743-24.679,5.843c-0.728,0.802-1.719,1.419-2.699,1.859c-11.334,5.085-12.95,15.104-13.057,25.784
		c-0.069,6.662,2.445,10.396,8.846,12.212c10.561,2.992,21.234,6.072,32.236,1.775c2.309-0.902,4.281-0.659,5.889,1.339
		c0,2.635,0,5.269,0,7.905c-4.098,5.13-8.189,10.189-5.35,17.524c0.84,2.173-1.223,3.494-2.567,4.874c-1.759,0-3.52,0-5.278,0
		c-3.114-2.596-4.736-6.277-6.959-9.525c-8.735-12.766-25.354-15.284-36.479-4.72c-7.686,7.3-16.147,11.257-26.649,11.533
		c-2.699,0.072-5.687,0.375-7.766,2.712c-28.591,0-57.182,0-85.771,0c-2.491-1.847-3.159-4.565-3.728-7.413
		c-0.982-4.938-2.128-9.818-4.243-14.464c-2.217-4.862-5.506-8.258-10.653-10.019c-5.394-1.842-10.548-4.316-15.751-6.646
		c-6.695-3.001-10.179-2.07-13.768,4.073c-4.854,8.31-10.243,16.469-8.129,26.963c0.593,2.943-0.618,5.603-3.109,7.506
		c-2.2,0-4.399,0-6.597,0c-3.088-2.087-3.448-5.494-3.975-8.691c-0.857-5.212-3.222-9.481-7.14-12.976
		c-4.649-4.147-7.805-9.411-11.112-14.607c-3.77-5.918-6.338-6.486-12.608-3.311c-6.518,3.298-13.187,5.814-20.641,6.144
		c-5.775,0.256-10.018,3.171-11.695,8.953c-1.708,5.893,0.78,10.202,5.501,13.582c2.32,1.659,4.7,3.232,6.999,4.926
		c2.138,1.579,3.714,3.214,1.887,5.98c-2.639,0-5.279,0-7.917,0c-6.56-2.659-12.146-6.591-17.189-11.642
		c-5.247-5.261-9.112-3.8-10.808,3.643c-0.678,2.972-0.842,6.062-3.672,7.999c-1.76,0-3.519,0-5.278,0
		c-2.766-3.33-6.245-4.483-10.532-3.78c-5.425,0.895-10.924,0.257-16.384,0.523c-4.438,0.215-8.828,0.702-12.672,3.257
		c-1.76,0-3.519,0-5.278,0c-2.647-1.957-1.966-4.533-1.425-7.159c2.605-12.658-3.524-22.66-10.694-31.857
		c-4.473-5.736-15.728-6.579-22.585-2.44c-5.623,3.392-11.29,6.687-16.967,9.979c-6.17,3.574-7.105,7.24-4.231,13.776
		c1.583,3.604,3.566,7.019,4.899,10.748c1.012,2.829,0.697,5.116-1.78,6.954c-2.199,0-4.399,0-6.597,0
		c-3.642-1.613-5.471-4.76-7.141-8.143c-1.738-3.522-3.019-7.235-4.699-10.777c-5.008-10.563-15.263-14.053-25.605-8.543
		c-3.844,2.05-7.525,4.418-11.586,6.036c-2.702,1.078-5.463,1.888-7.709-0.972c0-3.075,0-6.149,0-9.223
		c2.052-2.116,4.056-4.204,6.577-5.889c4.376-2.92,4.922-5.917,0.933-8.939c-7.694-5.828-7.14-13.75-6.581-21.722
		c0.263-3.742,0.774-7.369-0.929-10.886c0-2.197,0-4.393,0-6.588c1.891-2.311,4.425-3.524,7.253-4.237
		c1.064-0.268,2.253-0.26,3.19-0.772c7.654-4.191,19.578-4.229,19.802-16.25c0.372-19.962-6.579-29.911-21.611-33.743
		c-3.183-0.811-6.485-1.4-8.634-4.291c0-1.317,0-2.635,0-3.953c4.178-4.602,9.995-4.001,15.307-4.479
		c10.572-0.955,12.345-3.862,7.61-13.456c-2.136-4.335-4.863-8.332-7.006-12.663c-2.555-5.164-4.674-10.191-3.603-16.319
		c0.938-5.362-1.18-10.024-6.373-12.573C2.929,290.249,1.31,288.232-0.535,286.392z"/>
	<path fill-rule="evenodd" clip-rule="evenodd" fill="#CC9932" d="M-0.535,155.945c4.758-3.033,6.965-8.194,10.119-12.5
		c2.962-4.047,6.425-6.624,11.347-5.86c7.829,1.218,15.28-3.513,22.979-1.338c6.205,1.75,12.336,3.926,18.262,6.467
		c5.81,2.492,7.388,9.034,5.44,17.038c-2.127,8.748-7.306,15.662-13.083,22.034c-5.691,6.278-6.959,13.661-7.582,21.502
		c-0.213,2.684,1.284,6.144-2.054,7.679c-3.447,1.585-7.022,0.743-10.396-0.947c-5.708-2.86-9.025-8.33-12.552-13.008
		c-5.123-6.795-11.957-11.414-18.036-16.942c-1.532-1.393-2.627-3.274-4.444-4.359C-0.535,169.122-0.535,162.533-0.535,155.945z"/>
	<path fill-rule="evenodd" clip-rule="evenodd" fill="#CC9932" d="M500.898,79.524c-4.489,3.349-6.101,8.727-9.143,13.094
		c-8.177,11.744-23.21,12.566-33.123,2.316c-5.055-5.224-11.365-9.303-17.391-13.495c-4.056-2.825-4.227-5.823-2.379-9.952
		c3.555-7.942,9.753-14.232,13.442-22.138c1.34-2.873,4.953-4.642,8.457-5.409c7.812-1.71,14.125-6.137,20.196-11.04
		c7.062-5.703,11.201-4.713,15.453,3.215c1.814,3.383,1.898,7.456,4.486,10.467C500.898,57.562,500.898,68.543,500.898,79.524z"/>
	<path fill-rule="evenodd" clip-rule="evenodd" fill="#CC9932" d="M161.77-0.852c-3.464,7.491-0.479,15.02,0.136,22.454
		c1.246,15.088-4.677,24.605-19.364,29.182c-9.261,2.889-18.711,5.049-28.349,6.365c-5.255,0.718-7.789-2.328-8.992-6.613
		c-2.152-7.662-3.471-15.578-5.963-23.116c-1.979-5.987,0.456-9.018,5.261-11.467c7.177-3.66,12.96-8.589,15.046-16.805
		C133.62-0.852,147.696-0.852,161.77-0.852z"/>
	<path fill-rule="evenodd" clip-rule="evenodd" fill="#CC9932" d="M500.898,146.722c-7.965,9.882-20.521,13.19-30.087,20.846
		c-3.187,2.552-5.805,5.75-9.557,7.775c-5.81,3.133-9.085,2.499-11.777-3.556c-3.656-8.223-3.836-17.19-5.396-25.875
		c-1.818-10.129,1.204-18.169,9.017-24.661c0.783-0.652,1.151-1.795,1.75-2.688c10.712-15.993,28.185-16.292,40.278-0.802
		c1.577,2.02,3.833,3.511,5.772,5.245C500.898,130.911,500.898,138.816,500.898,146.722z"/>
	<path fill-rule="evenodd" clip-rule="evenodd" fill="#CC9932" d="M-0.535,87.429c2.108-2.752,4.197-5.517,6.326-8.254
		c3.211-4.13,6.875-6.18,12.463-4.253c2.974,1.023,6.784,1.395,9.708,0.462c9.123-2.906,16.453,0.139,23.729,5.199
		c4.593,3.195,9.835,5.448,14.492,8.562c5.854,3.916,5.873,8.93,0.11,12.874c-9.601,6.574-19.224,12.773-26.096,22.783
		c-5.292,7.709-20.747,9.257-29.379-0.488c-3.465-3.913-7.395-7.209-11.352-10.532C-0.535,104.997-0.535,96.214-0.535,87.429z"/>
	<path fill-rule="evenodd" clip-rule="evenodd" fill="#CC9932" d="M-0.535,227.097c11.167-5.869,23.531-6.521,35.676-7.78
		c6.021-0.625,9.944,3.673,10.513,9.749c1.223,13.047-1.826,25.499-6.783,37.223c-3.463,8.188-9.525,15.162-19.365,16.576
		c-5.12,0.732-9.828-2.243-14.91-2.486c-1.715-0.083-3.421-0.378-5.131-0.575C-0.535,262.236-0.535,244.665-0.535,227.097z"/>
	<path fill-rule="evenodd" clip-rule="evenodd" fill="#CC9932" d="M500.898,469.542c-13.13,6.723-26.304,4.173-39.436,0.085
		c-9.247-2.877-12.218-7.852-10.828-17.357c0.349-2.368,0.467-4.785,0.474-7.181c0.022-9.474,5.474-15.079,13.399-18.925
		c4.753-2.306,7.427-7.3,12.511-9.268c8.482-3.284,16.082,0.29,23.88,2.575C500.898,436.163,500.898,452.852,500.898,469.542z"/>
	<path fill-rule="evenodd" clip-rule="evenodd" fill="#CC9932" d="M62.803,499.846c-0.33-6.297-3.841-11.366-6.505-16.76
		c-4.311-8.725-3.581-12.582,4.733-17.188c6.425-3.561,12.774-7.107,18.913-11.188c7.314-4.864,25.601-2.675,30.245,8.975
		c3.17,7.948,8.653,14.958,8.182,24.276c-0.217,4.257-2.283,7.837-2.785,11.885C97.992,499.846,80.399,499.846,62.803,499.846z"/>
	<path fill-rule="evenodd" clip-rule="evenodd" fill="#CC9932" d="M500.898,221.828c-2.928,1.814-5.959,3.482-8.766,5.47
		c-7.519,5.324-15.851,5.286-23.579,1.875c-9.693-4.283-16.495-11.716-17.805-22.958c-0.404-3.434,0.352-6.888,2.463-9.233
		c6.983-7.749,11.959-17.13,19.687-24.198c8.018-7.333,16.653-6.782,21.832,2.178c1.318,2.279,2.661,5.533,6.168,6.019
		C500.898,194.596,500.898,208.211,500.898,221.828z"/>
	<path fill-rule="evenodd" clip-rule="evenodd" fill="#CC9932" d="M205.317,499.846c-3.813-4.874-9.802-6.864-14.37-10.835
		c-5.28-4.594-4.896-9.964-3.338-15.464c1.833-6.479,6.658-10.341,13.382-10.478c8.567-0.172,16.094-2.693,23.092-7.475
		c4.75-3.246,9.362-2.686,12.314,2.417c4.826,8.34,10.616,15.75,17.373,22.674c4.949,5.075,4.345,12.42,4.33,19.16
		C240.506,499.846,222.911,499.846,205.317,499.846z"/>
	<path fill-rule="evenodd" clip-rule="evenodd" fill="#CC9932" d="M200.038-0.852c2.6,4.795,8,6.562,11.382,10.593
		c6.184,7.374,5.852,12.197-1.316,18.347c-4.519,3.877-8.407,8.294-7.439,15.019c0.488,3.403-0.622,6.245-4.008,7.363
		c-5.92,1.956-11.852,4.463-17.957,5.146c-13.099,1.466-21.357-9.019-16.698-21.117c4.522-11.735,0.514-23.612,1.728-35.351
		C177.166-0.852,188.603-0.852,200.038-0.852z"/>
	<path fill-rule="evenodd" clip-rule="evenodd" fill="#CC9932" d="M500.898,350.954c-6.109-0.222-11.524,3.189-17.854,2.807
		c-10.511-0.634-13.159-2.86-17.454-12.202c-5.028-10.941-4.153-21.615-1.664-32.678c3.628-16.143,13.188-21.746,29.749-23.764
		c2.377-0.29,4.814-0.044,7.223-0.044C500.898,307.034,500.898,328.994,500.898,350.954z"/>
	<path fill-rule="evenodd" clip-rule="evenodd" fill="#CC9932" d="M-0.535,25.501c5.274-0.451,10.409,0.91,15.608,1.219
		c8.906,0.531,17.88,0.755,26.083-3.864c4.652-2.619,7.805-0.505,8.92,3.888c2.449,9.644,6.122,18.568,11.167,27.235
		c3.972,6.821,1.594,10.865-6.297,12.887c-10.47,2.685-21.077,4.937-32.004,4.741c-1.936-0.036-3.747-0.25-5.694-0.965
		c-7.114-2.614-11.22-6.521-9.995-14.953c1.237-8.518-1.422-16.169-7.79-22.283C-0.535,30.771-0.535,28.136-0.535,25.501z"/>
	<path fill-rule="evenodd" clip-rule="evenodd" fill="#CC9932" d="M264.697,499.846c1.267-6.602-2.463-13.157-0.029-19.813
		c2.755-7.536,6.927-14.312,11.299-20.923c3.102-4.688,8.145-5.086,12.676-2.497c6.969,3.979,14.425,6.6,21.823,9.529
		c8.294,3.279,9.467,11.868,11.868,18.974c1.536,4.547,2.488,9.669,1.744,14.73C304.283,499.846,284.491,499.846,264.697,499.846z"
		/>
	<path fill-rule="evenodd" clip-rule="evenodd" fill="#CC9932" d="M489.024-0.852c-4.888,12.255-11.817,23.455-20.077,33.535
		c-7.036,8.58-13.093,8.103-20.782,0.039c-8.906-9.338-20.171-15.681-29.937-23.938c-3.431-2.902-5.837-6.211-8.379-9.636
		C436.24-0.852,462.632-0.852,489.024-0.852z"/>
	<path fill-rule="evenodd" clip-rule="evenodd" fill="#CC9932" d="M-0.535,354.907c13.658-0.479,24.374,4.729,30.233,17.28
		c3.586,7.684,3.167,16.438,4.022,24.785c0.348,3.393-2.526,5.329-4.725,6.613c-9.14,5.346-18.238,11.13-29.531,10.615
		C-0.535,394.437-0.535,374.671-0.535,354.907z"/>
	<path fill-rule="evenodd" clip-rule="evenodd" fill="#CC9932" d="M-0.535,477.447c5.77-1.251,10.867-3.886,15.802-7.095
		c13.099-8.52,26.385-4.367,32.512,9.945c2.791,6.525,5.617,13.035,8.427,19.548c-17.814,0-35.629-0.083-53.442,0.086
		c-2.837,0.026-3.509-0.534-3.386-3.383C-0.345,490.191-0.535,483.815-0.535,477.447z"/>
	<path fill-rule="evenodd" clip-rule="evenodd" fill="#CC9932" d="M500.898,414.201c-5.574-3.273-11.729-2.617-17.788-2.642
		c-8.115-0.033-13.944-5.798-12.34-13.523c1.541-7.417,1.191-14.765,0.935-22.095c-0.216-6.286,2.722-9.904,7.777-12.168
		c7.046-3.156,13.864-6.915,21.416-8.866C500.898,374.671,500.898,394.437,500.898,414.201z"/>
	<path fill-rule="evenodd" clip-rule="evenodd" fill="#CC9932" d="M322.758-0.852c-7.548,11.477-13.091,24.854-28.247,29.011
		c-4.531,1.243-9.191,2.409-13.016,5.373c-4.179,3.239-6.86,1.57-8.114-2.735c-3.063-10.5-5.81-21.093-8.684-31.648
		C284.052-0.852,303.405-0.852,322.758-0.852z"/>
	<path fill-rule="evenodd" clip-rule="evenodd" fill="#CC9932" d="M-0.535,286.392c12.456,1.898,16.709,5.977,15.6,17.685
		c-0.743,7.846,2.516,13.871,6.009,19.886c2.393,4.116,4.58,8.321,6.746,12.536c3.828,7.452,1.375,12.181-6.911,13.04
		c-7.12,0.74-14.295,0.964-21.443,1.416C-0.535,329.433-0.535,307.911-0.535,286.392z"/>
	<path fill-rule="evenodd" clip-rule="evenodd" fill="#CC9932" d="M409.85,499.846c1.14-6.724,7.399-5.771,11.356-6.245
		c8.532-1.023,15.087-4.533,20.828-10.646c8.279-8.812,18.515-9.665,28.996-5.112c9.393,4.078,15.834,11.108,16.673,22.003
		C461.752,499.846,435.803,499.846,409.85,499.846z"/>
	<path fill-rule="evenodd" clip-rule="evenodd" fill="#CC9932" d="M56.206-0.852c-0.021,9.993-2.375,12.458-12.448,17.246
		c-10.661,5.063-21.157,8.571-33.142,5.31c-3.474-0.945-7.421-0.153-11.151-0.157c0-6.368,0.189-12.745-0.087-19.101
		c-0.124-2.85,0.548-3.411,3.386-3.383C20.577-0.77,38.392-0.852,56.206-0.852z"/>
	<path fill-rule="evenodd" clip-rule="evenodd" fill="#CC9932" d="M258.101-0.852c-0.007,8.521-7.755,10.834-12.538,15.509
		c-0.906,0.884-2.155,1.41-3.208,2.153c-9.618,6.79-15.249,7.681-23.807-3.789c-3.479-4.663-7.058-9.252-10.592-13.873
		C224.67-0.852,241.385-0.852,258.101-0.852z"/>
	<path fill-rule="evenodd" clip-rule="evenodd" fill="#CC9932" d="M500.898,279.803c-1.877-0.443-3.76-0.893-5.64-1.333
		c-8.409-1.967-8.537-2.64-7.729-11.264c0.592-6.311,1.394-13.066-0.197-19.007c-2.383-8.885,1.258-13.677,8.078-17.698
		c1.854-1.092,3.659-2.267,5.487-3.404C500.898,244.665,500.898,262.236,500.898,279.803z"/>
	<path fill-rule="evenodd" clip-rule="evenodd" fill="#CC9932" d="M115.587-0.852c-7.828,15.987-29,20.289-43.705,11.226
		c-4.53-2.792-7.568-6.259-9.079-11.226C80.399-0.852,97.992-0.852,115.587-0.852z"/>
	<path fill-rule="evenodd" clip-rule="evenodd" fill="#CC9932" d="M-0.535,183.617c9.588,6.918,18.143,14.928,25.105,24.495
		c3.898,5.356,2.778,6.944-3.597,8.569c-7.105,1.809-14.828-0.09-21.508,3.829C-0.535,208.211-0.535,195.913-0.535,183.617z"/>
	<path fill-rule="evenodd" clip-rule="evenodd" fill="#CC9932" d="M165.73,499.846c-0.218-4.575,0.024-9.095,1.325-13.541
		c1.747-5.974,7.066-8.486,11.359-4.31c6.232,6.061,13.59,10.928,18.986,17.851C186.842,499.846,176.286,499.846,165.73,499.846z"/>
	<path fill-rule="evenodd" clip-rule="evenodd" fill="#CC9932" d="M-0.535,420.789c3.239,2.559,3.414,6.321,2.346,9.508
		c-3.044,9.099,0.111,15.458,7.557,20.587c7.7,5.301,7.423,9.942-0.848,14.102c-2.848,1.431-5.496,3.688-9.055,3.239
		C-0.535,452.411-0.535,436.599-0.535,420.789z"/>
	<path fill-rule="evenodd" clip-rule="evenodd" fill="#CC9932" d="M120.865,499.846c2.698-4.895,7.146-6.52,12.409-6.581
		c7.331-0.087,14.653,0.392,21.875-1.818c3.842-1.173,5.214,1.262,5.303,8.399C147.256,499.846,134.06,499.846,120.865,499.846z"/>
	<path fill-rule="evenodd" clip-rule="evenodd" fill="#CC9932" d="M492.981,499.846c0.681-3.128-0.895-5.931-1.489-8.827
		c-1.824-8.912-1.653-9.478,7.104-12.439c0.805-0.273,1.538-0.75,2.303-1.132c0,4.832-0.548,9.74,0.129,14.477
		C502.01,498.752,499.749,501.333,492.981,499.846z"/>
	<path fill-rule="evenodd" clip-rule="evenodd" fill="#CC9932" d="M500.898,21.547c-8.63-2.449-9.344-3.573-7.242-11.874
		c0.916-3.607,1.264-7.126-0.675-10.526c6.768-1.487,9.028,1.092,8.046,7.925C500.351,11.807,500.898,16.715,500.898,21.547z"/>
	<path fill-rule="evenodd" clip-rule="evenodd" fill="#CC9932" d="M-0.535,124.323c10.315,4.241,10.986,10.882,0,21.081
		C-0.535,138.378-0.535,131.35-0.535,124.323z"/>
	<path fill-rule="evenodd" clip-rule="evenodd" fill="#CC9932" d="M500.898,112.464c-8.771-8.858-8.771-14.796,0-23.718
		C500.898,96.652,500.898,104.558,500.898,112.464z"/>
	<path fill-rule="evenodd" clip-rule="evenodd" fill="#CC9932" d="M-0.535,53.169c2.266,6.829,4.997,13.595,2.581,21.002
		c-0.438,1.343-1.279,2.231-2.581,2.717C-0.535,68.982-0.535,61.076-0.535,53.169z"/>
	<path fill-rule="evenodd" clip-rule="evenodd" fill="#CC9932" d="M500.898,174.393c-5.072-4.376-5.074-11.436,0-15.812
		C500.898,163.852,500.898,169.122,500.898,174.393z"/>
	<path fill-rule="evenodd" clip-rule="evenodd" fill="#CC9932" d="M500.898,30.771c-1.244-0.469-2.385-1.204-2.393-2.616
		c-0.007-1.559,1.424-1.174,2.393-1.337C500.898,28.136,500.898,29.454,500.898,30.771z"/>
	<path fill-rule="evenodd" clip-rule="evenodd" fill="#CC9932" d="M191.865,233.392c2.976,2.728,5.503,4.033,9.063,4.427
		c8.922,0.99,11.032,8.298,14.655,15.329c6.19,12.023,6.412,22.173-3.08,32.108c-0.719,0.75-1.101,1.869-1.507,2.868
		c-5.509,13.565-13.286,14.805-26.723,7.11c-6.907-3.955-14.36-6.74-20.364-12.406c-5.263-4.97-5.767-10.793-4.32-16.796
		c2.337-9.691,6.659-18.743,11.623-27.356c3.079-5.345,8.032-7.954,14.419-5.503c1.768,0.677,3.835,0.246,4.61-0.551
		c1.001-1.028-0.475-2.913-1.498-3.778c-7.136-6.037-7.644-9.82-1.901-16.831c0.97-1.183,1.975-2.507,3.264-3.229
		c7.005-3.923,10.746-10.527,14.471-17.159c5.871-10.448,13.467-12.586,21.912-4.161c8.031,8.016,17.986,12.002,27.474,17.154
		c2.304,1.25,4.565,2.408,6.474,4.301c2.05,2.037,1.952,4.43,1.325,6.707c-0.635,2.316-2.897,2.272-4.938,2.259
		c-4.019-0.029-8.297-0.873-11.988,0.229c-5.316,1.587-8.882,6.043-11.89,10.682c-0.941,1.45-1.518,3.306-2.782,4.345
		c-2.526,2.077-0.494,8.559-7.92,6.557c-3.471-0.936-7.212,0.542-10.445-3.187C208.915,233.181,198.206,232.028,191.865,233.392z"/>
	<path fill-rule="evenodd" clip-rule="evenodd" fill="#CC9932" d="M375.513,57.622c-0.167-10.403,5.675-18.355,11.053-26.4
		c4.49-6.715,5.764-13.854,4.093-21.599c-1.256-5.812,3.129-9.877,8.933-8.373c3.484,0.902,6.484,2.721,8.816,5.147
		c9.084,9.447,19.706,16.909,30.37,24.351c6.577,4.591,8.668,12.375,4.937,19.372c-3.243,6.086-6.707,12.062-10.279,17.962
		c-1.904,3.146-4.904,5.117-8.701,4.78c-3.594-0.319-7.296,0.105-10.188,1.594c-9.827,5.053-19.168,0.958-28.446-1.049
		C376.58,71.352,374.605,67.606,375.513,57.622z"/>
	<path fill-rule="evenodd" clip-rule="evenodd" fill="#CC9932" d="M207.872,337.125c0.457,3.079-0.323,5.846-2.325,7.451
		c-8.695,6.977-13.637,16.783-19.8,25.64c-3.032,4.358-5.443,4.608-8.796,0.568c-6.602-7.958-15.828-11.921-25.021-15.834
		c-3.192-1.36-6.426-2.508-9.006-4.988c-1.919-1.842-3.079-3.629-1.262-6.224c1.859-2.656,1.677-5.746,1.651-8.809
		c-0.104-11.727,4.566-21.18,13.593-28.638c2.176-1.795,4.435-3.786,5.83-6.175c2.913-4.979,7.378-5.481,11.836-3.974
		c18.353,6.201,29.449,18.999,33.271,38C208.056,335.194,207.872,336.326,207.872,337.125z"/>
	<path fill-rule="evenodd" clip-rule="evenodd" fill="#CC9932" d="M206.431,311.288c-0.297-2.845,0.412-5.559,2.081-7.495
		c6.422-7.448,9.986-16.572,15.078-24.793c2.901-4.687,6.749-5.626,11.593-3.278c1.947,0.944,4.119,1.579,5.824,2.847
		c8.601,6.4,18.182,8.684,28.805,7.909c5.463-0.397,8.017,2.834,6.541,8.085c-2.505,8.911-4.604,17.897-6.489,26.95
		c-0.784,3.765-3.148,6.608-6.651,8.392c-11.376,5.792-23.376,9.929-35.731,12.989c-4.944,1.222-9.552-0.738-11.886-4.997
		C211.047,329.603,208.448,320.492,206.431,311.288z"/>
	<path fill-rule="evenodd" clip-rule="evenodd" fill="#CC9932" d="M229.127,169.063c-0.774-6.378,1.882-12.254,3.271-18.332
		c1.052-4.61,4.458-8.08,8.799-8.586c9.473-1.107,18.451-4.648,28.133-4.81c5.954-0.099,9.3,2.678,10.807,7.505
		c3.444,11.048,8.354,20.755,18.474,27.384c4.369,2.861,4.108,7.808-0.074,10.947c-7.616,5.712-16.016,10.409-22.549,17.502
		c-1.175,1.273-2.613,1.418-4.187,1.389c-12.243-0.233-23.522-3.81-33.216-11.128C231.621,185.679,228.454,178.061,229.127,169.063z
		"/>
	<path fill-rule="evenodd" clip-rule="evenodd" fill="#CC9932" d="M481.104,263.204c0.888,15.529-2.332,20.474-18.656,25.607
		c-9.839,3.092-18.679,8.934-29.339,9.842c-6.218,0.532-9.814-1.24-9.94-7.358c-0.088-4.286,0.403-8.704,1.412-12.876
		c2.672-11.04,3.767-22.211,3.722-33.521c-0.021-5.78,1.285-11.36,6.836-13.699c6.96-2.933,14.231-6.812,22.171-2.285
		c2.439,1.391,4.885,3.127,7.547,3.716c13.553,2.997,15.377,13.477,16.226,24.657C481.232,259.25,481.104,261.232,481.104,263.204z"
		/>
	<path fill-rule="evenodd" clip-rule="evenodd" fill="#CC9932" d="M46.562,464.494c-8.606-5.813-22.158-2.862-30.685-13.249
		c-3.492-4.253-9.136-6.527-11.318-12.274c-1.016-2.673-1.269-4.739,0.05-7.353c3.188-6.327,7.046-11.971,13.379-15.544
		c8.622-4.862,16.926-10.114,26.739-12.84c6.567-1.823,11.729,0.252,15.357,4.111c7.547,8.027,13.178,17.621,17.083,28.015
		c2.254,6.005,1.258,11.599-4.286,15.474c-6.208,4.345-12.69,8.294-18.972,12.534C52.054,464.622,50.104,464.052,46.562,464.494z"/>
	<path fill-rule="evenodd" clip-rule="evenodd" fill="#CC9932" d="M413.522,428.692c7.263,1.789,15.959,1.612,24.478,3.427
		c9.61,2.051,11.138,9.998,9.718,16.859c-0.955,4.602-1.153,8.865,0.036,13.446c1.331,5.141,0.344,9.985-4.113,13.568
		c-6.057,4.867-11.964,9.861-19.75,12.048c-5.582,1.567-11.242,2.787-16.707,4.985c-10.629,4.284-17.442,0.073-18.298-11.483
		c-0.917-12.379-0.03-24.75,3.882-36.681C395.286,437.194,405.732,428.722,413.522,428.692z"/>
	<path fill-rule="evenodd" clip-rule="evenodd" fill="#CC9932" d="M50.06,345.684c-5.731,0.763-9.59-2.074-12.406-7.642
		c-2.117-4.185-5.144-7.973-8.111-11.659c-11.077-13.758-8.574-19.254-2.775-34.702c2.293-6.113,7.229-10.823,12.231-15.063
		c5.465-4.631,11.487-4.168,17.538-1.155c9.865,4.909,19.76,9.74,30.287,13.134c1.016,0.331,1.917,0.999,2.894,1.462
		c2.828,1.336,5.957,3.04,5.828,6.324c-0.15,3.791-3.958,4.635-6.998,5.834c-5.773,2.284-12.074,3.394-16.967,7.66
		c-2.43,2.122-3.911,4.435-3.572,7.916c0.337,3.472,0.074,7.004,0.073,10.508C68.078,340.222,62.562,345.713,50.06,345.684z"/>
	<path fill-rule="evenodd" clip-rule="evenodd" fill="#CC9932" d="M231.652,427.165c1.3,17.2-12.098,27.208-25.002,30.669
		c-12.174,3.266-20.208-1.946-27.997-10.159c-10.589-11.164-11.295-11.304-2.137-23.562c7.268-9.726,6.932-21.033,8.968-31.897
		c1.488-7.952,4.609-12.007,10.054-12.28c2.82-0.142,5.009,0.272,6.213,3.411c4.063,10.601,10.837,18.812,20.579,25.065
		C228.962,412.666,233.066,419.252,231.652,427.165z"/>
	<path fill-rule="evenodd" clip-rule="evenodd" fill="#CC9932" d="M53.474,200.458c0.262-11.873,7.471-20.013,15.645-27.188
		c9.51-8.349,21.936-7.808,33.57-9.384c1.494-0.203,3.065-0.151,4.218,1.216c5.111,6.074,12.166,8.407,19.421,10.916
		c7.111,2.458,10.529,6.659,4.668,14.184c-6.806,8.737-15.21,15.992-21.784,25.001c-3.755,5.146-10.988,3.654-16.433,2.266
		c-9.035-2.304-18.156-3.672-27.345-4.881C56.459,211.407,53.553,208.468,53.474,200.458z"/>
	<path fill-rule="evenodd" clip-rule="evenodd" fill="#CC9932" d="M267.345,387.657c-0.031,11.289-3.877,15.006-13.667,15.949
		c-5.233,0.504-10.349,1.526-14.929,3.991c-4.097,2.205-7.854,1.186-11.013-0.919c-7.006-4.675-13.605-10.025-17.748-17.59
		c-3.118-5.698-6.227-11.359-9.731-16.853c-4.363-6.835-1.447-14.06,6.478-17.215c7.264-2.893,14.892-4.543,22.651-5.275
		c2.684-0.255,5.074-0.826,7.462-1.977c7.965-3.839,13.037-3.385,17.272,4.212C260.825,364.004,265.675,376.966,267.345,387.657z"/>
	<path fill-rule="evenodd" clip-rule="evenodd" fill="#CC9932" d="M374.287,255.8c-0.12-8.583-0.969-16.473,4.424-23.244
		c3.936-4.942,7.232-5.81,11.903-1.442c6.84,6.399,14.615,9.17,23.779,7.797c6.29-0.938,8.442,2.795,8.504,7.795
		c0.095,8.031,1.275,16.186-1.202,24.088c-2.035,6.491-2.831,13.079-2.713,19.899c0.092,5.294-2.175,9.709-7.436,11.897
		c-2.941,1.218-4.762,3.771-7.175,5.603c-7.106,5.396-12.812,4.325-16.95-3.655C379.385,289.038,372.63,273.104,374.287,255.8z"/>
	<path fill-rule="evenodd" clip-rule="evenodd" fill="#CC9932" d="M62.715,217.879c7.888,1.208,18.411,2.599,28.846,4.479
		c11.118,2.003,19.539,17.048,16.501,28.351c-2.947,10.965-4.76,21.881-15.166,28.868c-4.066,2.734-7.941,2.969-12.112,1.277
		c-8.008-3.25-15.963-6.633-23.883-10.092c-8.304-3.623-10.874-6.855-8.297-15.165c2.958-9.54,2.041-19.002,2.281-28.528
		C51.118,217.86,50.962,217.856,62.715,217.879z"/>
	<path fill-rule="evenodd" clip-rule="evenodd" fill="#CC9932" d="M369.522,498.529c-6.745-1.536-15.722-0.944-24.627-1.504
		c-6.866-0.433-12.066-4.6-15.54-10.536c-3.52-6.022-5.309-12.759-6.438-19.514c-0.983-5.883-0.361-11.438,6.046-15.059
		c4.848-2.741,7.052-8.636,11.936-11.735c2.936-1.865,6.002-2.964,9.254-2.108c7.908,2.081,15.847,4.18,23.543,6.914
		c9.714,3.451,12.235,7.652,9.415,18.76c-1.727,6.811-0.338,13.038,0.701,19.266C386.109,496.796,385.132,498.529,369.522,498.529z"
		/>
	<path fill-rule="evenodd" clip-rule="evenodd" fill="#CC9932" d="M287.131,417.572c0-3.723,0.441-7.511-0.09-11.154
		c-1.175-7.995,3.76-12.998,8.348-18.151c2.473-2.777,5.519-3.54,9.322-1.837c10.22,4.577,20.612,8.771,30.887,13.231
		c3.929,1.707,6.105,4.595,5.679,9.219c-0.48,5.208,0.125,10.434-0.473,15.693c-1.195,10.509-8.39,16.896-15.597,23.084
		c-2.617,2.246-5.23,4.532-7.824,6.83c-5.601,4.964-10.278,5.092-15.712-0.134C291.264,444.344,283.427,433.198,287.131,417.572z"/>
	<path fill-rule="evenodd" clip-rule="evenodd" fill="#CC9932" stroke="#CC9932" stroke-miterlimit="10" d="M345.183,123.642
		c-0.083,4.536-6.23,12.704-11.356,13.426c-10.184,1.434-14.991,8.597-19.693,16.273c-1.693,2.761-3.336,5.623-5.48,8.014
		c-4.914,5.479-10.9,5.224-14.691-0.993c-5.964-9.776-10.998-20.078-13.093-31.464c-1.822-9.907,4.531-21.333,14.174-24.891
		c9.139-3.371,17.089-9.377,26.771-11.511c7.24-1.597,10.242-0.317,11.271,7.065c1.08,7.718,3.976,14.111,9.824,19.186
		C344.494,120.123,345.543,121.673,345.183,123.642z"/>
	<path fill-rule="evenodd" clip-rule="evenodd" fill="#CC9932" d="M238.833,135.029c-5.312,0.726-8.262-2.146-10.238-6.485
		c-3.482-7.652-7.255-15.133-9.271-23.435c-1.657-6.826,0.272-12.5,5.294-16.219c8.288-6.141,16.923-11.958,27.155-14.829
		c8.426-2.365,13.857-0.523,18.218,6.876c2.965,5.028,5.942,10.049,8.936,15.061c2.298,3.85,2.892,8.604,0.939,11.938
		c-2.729,4.669-4.364,9.343-4.989,14.54c-1.155,9.657-8.998,10.092-15.902,10.829C252.281,134.018,245.452,133.436,238.833,135.029z
		"/>
	<path fill-rule="evenodd" clip-rule="evenodd" fill="#CC9932" d="M138.02,410.34c-0.02,21.299-14.401,37.769-34.856,40.693
		c-9.234,1.319-18.191-4.903-20.689-13.844c-1.385-4.969-3.281-9.854-5.495-14.517c-5.079-10.708-2.811-16.998,5.924-21.201
		c5.998-2.884,11.529-6.566,17.835-8.986c11.949-4.578,22.119-0.379,31.965,5.432C137.444,400.711,138.843,405.667,138.02,410.34z"
		/>
	<path fill-rule="evenodd" clip-rule="evenodd" fill="#CC9932" d="M354.147,184.83c-9.892-2.995-23.523-1.618-36.791-3.865
		c-5.675-0.96-6.571-3.667-5.905-9.658c1.764-15.869,11.623-24.407,24.693-30.544c6.819-3.2,12.31-7.772,17.229-13.33
		c5.177-5.849,11.847-8.85,19.684-8.289c6.661,0.474,9.686,5.56,8.251,12.209c-1.032,4.779-2.37,9.408-6.28,12.487
		c-7.559,5.949-9.209,13.279-6.132,22.062c0.353,1.012,0.3,2.171,0.69,3.162C374.146,180.67,372.416,185.404,354.147,184.83z"/>
	<path fill-rule="evenodd" clip-rule="evenodd" fill="#CC9932" d="M384.778,16.314c0,15.075-12.625,30.534-27.496,34.442
		c-4.097,1.077-7.738,3.838-11.629,5.743c-7.759,3.801-12.367,2.326-16.544-5.408c-4.201-7.778-6.813-16.358-11.875-23.694
		c-1.414-2.047-1.363-4.199-0.796-6.266c3.391-12.363,15.992-20.485,28.679-19.492c8.668,0.679,17.3,1.849,26.081,1.573
		C382.386,2.862,384.778,5.527,384.778,16.314z"/>
	<path fill-rule="evenodd" clip-rule="evenodd" fill="#CC9932" d="M405.939,412.826c-0.022,6.999-1.54,12.039-7.494,15.007
		c-4.799,2.392-7.377,7.274-11.061,10.931c-3.021,3-5.798,3.889-9.899,2.116c-8.508-3.671-17.213-6.887-25.836-10.291
		c-3.651-1.44-5.412-3.855-5.21-8.032c0.365-7.606-0.376-15.241,1.354-22.804c1.858-8.084,5.138-14.897,14.279-16.241
		c10.921-1.603,21.971-2.391,32.777,0.514c6.58,1.764,10.165,6.363,9.742,13.57C404.271,403.054,405.174,408.441,405.939,412.826z"
		/>
	<path fill-rule="evenodd" clip-rule="evenodd" fill="#CC9932" d="M307.467,186.625c16.817,1.341,33.787,1.271,50.164,6.081
		c3.699,1.086,7.249-0.888,10.755-1.935c2.651-0.792,5.293-0.897,5.629,2.283c0.926,8.728,4.402,16.625,7.457,24.65
		c1.238,3.251,0.617,5.735-2.058,7.385c-5.446,3.354-10.619,7.33-17.124,8.608c-0.641,0.126-1.576-0.023-1.886,0.354
		c-5.44,6.66-12.769,5.254-19.981,5.019c-5.012-0.164-13.654-4.984-15.089-9.443c-4.167-12.94-11.062-24.007-21.575-32.798
		c-2.115-1.769-4.284-4.34-2.927-7.308C301.961,187.05,304.806,186.395,307.467,186.625z"/>
	<path fill-rule="evenodd" clip-rule="evenodd" fill="#CC9932" d="M60.38,348.326c18.653,0.407,33.498,7.526,42.972,24.207
		c2.76,4.859,2.463,9.637-1.984,12.812c-8.601,6.142-17.951,11.142-27.524,15.659c-2.564,1.213-5.015,1.434-8.074,0.379
		c-5.666-1.953-11.636-3.295-17.585-4.089c-5.371-0.716-8.016-3.561-9.259-8.392c-1.72-6.668-3.742-13.293-3.809-20.251
		c-0.126-13.093,6.979-17.081,19.353-20.26C56.323,347.917,58.404,348.326,60.38,348.326z"/>
	<path fill-rule="evenodd" clip-rule="evenodd" fill="#CC9932" d="M227.963,146.192c-1.271,9.856-4.891,19.552-9.756,28.689
		c-2.39,4.488-7.644,4.047-11.863,3.318c-8.976-1.547-17.501-4.857-25.33-9.423c-9.68-5.642-14.442-22.572-10.39-33.136
		c1.893-4.928,5.701-7.492,9.732-9.986c8.542-5.286,18.023-8.235,27.733-10.385c4.282-0.948,8.056,0.11,10.471,4.426
		C223.112,127.824,227.55,135.951,227.963,146.192z"/>
	<path fill-rule="evenodd" clip-rule="evenodd" fill="#CC9932" d="M403.069,183.602c-12.552,1.112-22.519-4.347-27.728-17.704
		c-1.889-4.843-2.35-9.56,2.503-12.75c5.121-3.369,7.459-8.047,8.31-13.81c0.777-5.284,3.296-7.695,9.193-7.25
		c9.764,0.737,19.086,3.871,28.809,4.623c1.045,0.079,2.08,0.721,3.095,0.665c9.74-0.548,11.938,0.524,12.641,9.733
		c0.494,6.484,1.554,12.94,1.61,19.456c0.088,9.828-1.035,11.983-10.644,13.641C422.159,181.709,413.471,183.938,403.069,183.602z"
		/>
	<path fill-rule="evenodd" clip-rule="evenodd" fill="#CC9932" d="M467.907,392.105c-0.879,4.714-0.884,11.264-0.226,18.018
		c0.945,9.735-12.312,20.586-23.146,18.218c-7.461-1.633-15.059-1.409-22.393-3.356c-3.038-0.807-7.316,0.837-8.751-2.945
		c-1.502-3.962-3.081-8.389-2.013-12.648c1.312-5.24,1.435-10.161-0.046-15.371c-1.41-4.963,0.619-9.216,4.934-11.771
		c8.158-4.825,16.12-10.122,25.566-12.387C453.59,367.043,467.928,378.153,467.907,392.105z"/>
	<path fill-rule="evenodd" clip-rule="evenodd" fill="#CC9932" d="M177.869,394.719c-0.756,9.894-3.642,18.737-10.269,26.184
		c-3.665,4.12-8.607,5.188-13.12,3.267c-4.688-1.996-8.959-5.347-8.628-11.794c0.213-4.085-1.474-7.996-2.24-11.991
		c-1.179-6.14-4.914-9.356-10.518-11.08c-2.681-0.826-5.332-1.746-7.987-2.646c-12.661-4.294-15.728-8.525-16.154-21.547
		c-0.139-4.212,2.645-5.725,5.654-7.069c13.491-6.041,26.189-2.795,38.587,3.476c1.736,0.877,3.351,2.074,5.167,2.702
		C173.04,369.279,176.992,380.995,177.869,394.719z"/>
	<path fill-rule="evenodd" clip-rule="evenodd" fill="#CC9932" d="M111.398,227.875c-0.61-3.928,1.02-6.748,3.978-9.151
		c6.384-5.185,7.529-13.978,13.947-19.461c8.522-7.284,10.723-8.075,20.48-2.519c4.13,2.351,8.553,4.245,12.476,6.891
		c11.298,7.62,13.467,19.495,6.189,30.688c-3.172,4.879-6.012,10.005-8.619,15.211c-2.765,5.522-7.244,8.463-13.072,7.744
		c-14.965-1.849-28.137-7.892-34.456-23.669C111.62,231.855,111.688,229.793,111.398,227.875z"/>
	<path fill-rule="evenodd" clip-rule="evenodd" fill="#CC9932" d="M148.6,115.1c1.097,0,2.194,0,3.292,0
		c15.002,0.005,18.118,3.511,14.937,18.315c-1.837,8.541-3.494,16.806-1.289,25.581c1.239,4.928-6.763,14.506-13.021,15.114
		c-10.872,1.055-21.662-0.692-31.78-4.739c-5.374-2.147-8.519-6.765-9.519-12.917c-1.903-11.701,0.432-27.21,12.917-31.944
		c1.175-0.447,2.23-1.299,3.236-2.097C136.582,115.108,136.574,115.1,148.6,115.1z"/>
	<path fill-rule="evenodd" clip-rule="evenodd" fill="#CC9932" d="M140.469,489.489c-8.676,0.327-14.45-3.301-17.445-11.631
		c-2.187-6.081-5.011-11.926-8.697-17.29c-2.191-3.188-1.619-6.037,1.69-7.654c9.562-4.67,17.044-11.564,23.694-19.782
		c4.444-5.495,9.505-5.932,15.459-2.282c3.852,2.358,7.417,5.068,9.774,9.286c2.996,5.362,7.338,9.816,12.271,13.421
		c10.771,7.878,11.362,13.071,0.456,20.213c-9.521,6.238-20.084,10.847-30.734,15.009
		C144.987,489.538,142.634,489.28,140.469,489.489z"/>
	<path fill-rule="evenodd" clip-rule="evenodd" fill="#CC9932" d="M302.344,34.718c12.581,0.028,17.642,3.52,21.446,14.068
		c1.345,3.728,3.069,7.076,5.253,10.351c7.697,11.548,2.146,25.125-11.462,28.279c-6.635,1.537-12.578,4.56-18.241,8.219
		c-8.028,5.185-10.984,4.756-15.611-3.308c-3.557-6.194-8.175-12.512-9.199-19.249c-1.455-9.542,0.696-19.614,5.874-28
		C285.729,36.454,295.195,35.163,302.344,34.718z"/>
	<path fill-rule="evenodd" clip-rule="evenodd" fill="#CC9932" d="M125.661,318.016c-10.433,0.03-15.312-3.181-18.401-12.895
		c-1.733-5.457-5.077-9.983-7.583-14.982c-1.728-3.444-1.936-6.377,1.062-9.441c5.877-6.008,7.207-14.647,11.95-21.376
		c4.606-6.531,7.164-7.514,13.938-3.437c5.98,3.6,12.29,6.188,18.929,8.165c5.074,1.516,8.267,4.704,8.279,10.293
		c0.009,3.822,1.376,7.279,3.224,10.415c3.04,5.149,2.523,9.665-0.928,14.387C147.131,311.454,136.774,317.979,125.661,318.016z"/>
	<path fill-rule="evenodd" clip-rule="evenodd" fill="#CC9932" d="M364.987,353.652c-0.981-12.965,7.871-29.169,20.298-32.132
		c13.728-3.268,31.107,7.536,32.424,21.767c0.682,7.351,1.179,14.74,1.313,22.12c0.156,8.749-10.062,16.454-18.519,14.71
		c-5.904-1.217-11.682-2.812-17.889-3.007c-11.576-0.361-17.051-6.53-17.615-18.198
		C364.915,357.163,364.988,355.407,364.987,353.652z"/>
	<path fill-rule="evenodd" clip-rule="evenodd" fill="#CC9932" d="M391.318,186.265c3.764,0.382,9.313,1.376,15.025,1.424
		c11.368,0.093,22.529-0.499,33.535-3.797c6.565-1.965,8.526,0.366,6.934,7.192c-1.599,6.851-1.896,13.581-0.225,20.574
		c1.85,7.743-0.821,11.544-8.692,14.148c-6.742,2.23-13.408,4.78-20.282,6.488c-15.086,3.75-25.315-2.252-30.316-17.069
		c-1.997-5.908-4.742-11.589-6.399-17.577C378.359,188.47,380.304,186.19,391.318,186.265z"/>
	<path fill-rule="evenodd" clip-rule="evenodd" fill="#CC9932" d="M452.596,298.242c3.556,0.049,5.803,1.656,6.025,5.379
		c0.091,1.505,0.22,3.205-0.357,4.518c-7.158,16.328-2.067,31.193,5.267,45.826c1.258,2.511,2.661,4.971,3.694,7.576
		c1.772,4.456-0.221,7.604-4.616,6.358c-10.715-3.041-21.577-2.336-32.433-2.445c-2.954-0.03-3.888-1.422-4.655-4.242
		c-1.174-4.315-1.598-8.646-1.058-12.905c1.138-8.924-2.54-15.553-8.843-21.269c-1.944-1.763-3.737-3.698-5.594-5.561
		c-5.035-5.046-4.689-9.687,1.483-13.439c3.282-1.996,6.999-3.492,11.069-3.191c9.309,0.686,18.186-0.707,26.294-5.561
		C450.079,298.568,451.232,298.218,452.596,298.242z"/>
	<path fill-rule="evenodd" clip-rule="evenodd" fill="#CC9932" d="M362.129,279.735c3.113-0.337,6.71,0.902,8.79,4.263
		c5.22,8.434,10.009,17.132,15.084,25.654c2.33,3.912,1.247,6.464-2.616,8.392c-8.216,4.096-14.489,10.072-18.503,18.481
		c-2.165,4.544-6.305,6.229-10.712,3.64c-5.765-3.383-11.773-3.839-18.183-3.791c-7.102,0.048-12.762-6.098-11.292-12.684
		c0.85-3.801,1.255-7.745,1.651-11.443c0.985-9.22,6.75-14.248,13.652-18.521c3.253-2.016,6.468-4.294,8.163-7.347
		C351.216,280.884,355.775,279.804,362.129,279.735z"/>
	<path fill-rule="evenodd" clip-rule="evenodd" fill="#CC9932" d="M107.587,132.776c1.406,20.094-9.941,28.54-24.386,28.574
		c-6.579,0.017-10.161-3.205-10.959-8.786c-1.313-9.209-6.119-13.868-15.036-16.089c-10.444-2.601-12.158-10.087-4.103-17.464
		c8.463-7.75,17.707-14.619,28.113-19.674c7.159-3.477,13.111-1.24,16.914,5.709C103.092,114.115,109.813,122.554,107.587,132.776z"
		/>
	<path fill-rule="evenodd" clip-rule="evenodd" fill="#CC9932" d="M209.276,43.028c0.002-11.276,1.039-12.992,12.206-12.045
		c10.674,0.904,17.303-6.03,25.14-10.643c8.722-5.136,12.405-3.997,15.747,5.722c1.119,3.257,2.536,6.426,4.033,9.533
		c4.004,8.302,2.984,16.42-0.062,24.781c-1.568,4.307-4.788,5.989-8.477,7.165c-6.566,2.095-13.252,3.712-19.606,6.542
		c-7.15,3.183-13.309,1.66-18.636-4.514C213.359,62.312,209.273,52.772,209.276,43.028z"/>
	<path fill-rule="evenodd" clip-rule="evenodd" fill="#CC9932" d="M358.637,115.1c-9.694-0.012-19.021-9.456-21.538-19.981
		c-2.074-8.686,0.096-16.747,1.774-24.833c1.849-8.885,17.9-16.989,26.587-14.214c3.155,1.007,5.397,3.629,5.862,6.39
		c1.918,11.332,9.302,15.207,19.693,15.792c5.413,0.305,6.481,4.037,5.307,8.357C392.684,100.007,372.498,115.116,358.637,115.1z"/>
	<path fill-rule="evenodd" clip-rule="evenodd" fill="#CC9932" d="M314.905,240.131c8.604-5.934,16.115,0.22,23.302,3.022
		c8.214,3.203,15.258,1.872,22.109-1.97c2.488-1.393,4.629-1.627,6.388-0.58c2.271,1.354,3.959,3.618,3.861,6.828
		c-0.239,7.873-0.388,15.758-0.231,23.632c0.071,3.674-1.07,5.186-4.838,4.841c-1.976-0.179-3.812-0.787-5.695-1.115
		c-3.886-0.679-7.524-0.513-10.192,3.621c-1.975,3.061-4.998,5.516-7.807,7.954c-3.841,3.342-8.421,3.97-12.638,1.158
		c-4.736-3.156-9.874-5.299-15.009-7.57c-8.15-3.605-10.438-8.729-7.881-17.298c1.835-6.149,5.526-11.713,5.797-18.355
		C311.594,241.947,312.26,240.367,314.905,240.131z"/>
	<path fill-rule="evenodd" clip-rule="evenodd" fill="#CC9932" d="M423.291,130.879c-10.479,0.483-19.651-2.616-28.899-4.571
		c-8.142-1.718-10.103-10.9-4.014-17.263c5.151-5.382,9.809-11.094,13.262-17.575c6.934-13.013,24.596-15.302,34.907-3.916
		c3.728,4.114,8.895,6.891,13.023,10.688c4.407,4.055,6.223,9.067,1.764,14.194C445.104,121.899,437.513,132.657,423.291,130.879z"
		/>
	<path fill-rule="evenodd" clip-rule="evenodd" fill="#CC9932" d="M251.567,223.145c6.54,0.002,9.821,3.15,10.03,8.848
		c0.245,6.766,3.806,11.403,8.116,16.686c5.32,6.52,12.688,10.217,17.943,16.438c2.688,3.181,4.893,6.618,2.669,10.593
		c-2.398,4.283-6.108,6.812-11.597,5.821c-4.688-0.846-9.485-1.692-14.214-1.606c-7.361,0.13-14.18-0.652-20.407-5.104
		c-3.712-2.655-8.364-3.335-12.811-4.282c-5.083-1.081-7.726-3.733-7.652-9.513c0.099-7.695,1.548-14.22,7.527-19.828
		c4.772-4.479,6.624-11.443,12.654-15.324C246.585,224.099,248.906,222.753,251.567,223.145z"/>
	<path fill-rule="evenodd" clip-rule="evenodd" fill="#CC9932" d="M314.905,240.131c-0.947,1.389-1.893,2.78-2.834,4.168
		c-3.555,2.1-3.359,6.276-5.109,9.381c-3.565,6.327-8.137,9.004-14.312,5.605c-11.242-6.188-22.965-12.645-25.803-26.838
		c-2.34-11.702-1.724-20.35,9.62-27.088c2.593-1.542,5.571-2.874,7.455-5.085c5.429-6.37,10.369-4.133,15.403,0.188
		c8.849,7.595,15.489,16.874,20.431,27.361c1.842,3.903-1.479,6.209-3.384,8.85C315.6,237.745,314.603,238.638,314.905,240.131z"/>
	<path fill-rule="evenodd" clip-rule="evenodd" fill="#CC9932" d="M324.222,296.874c-1.14,7.478-2.101,14.989-3.512,22.414
		c-0.587,3.087-0.898,6.05-0.078,9.034c2.759,10.048,2.097,11.819-6.733,17.248c-6.735,4.142-9.212,3.895-11.947-3.395
		c-3.558-9.479-10.853-13.43-19.605-16.337c-9.054-3.006-10.06-5.339-7.177-14.424c3.444-10.867,8.378-20.856,16.595-29.033
		c3.267-3.256,6.826-4.168,11.074-2.503c4.825,1.888,9.688,3.7,14.441,5.76C322.111,287.733,325.263,291.031,324.222,296.874z"/>
	<path fill-rule="evenodd" clip-rule="evenodd" fill="#CC9932" d="M99.767,48.961c0.277,2.389-0.271,5.064-2.434,7.715
		c-6.096,7.476-6.926,16.003-4.448,25.187c0.765,2.836,1.215,6.345-2.013,8.359c-3.177,1.983-6.728,1.864-9.938,0.143
		c-6.835-3.661-12.388-9.398-19.874-12.098c-2.544-0.918-1.608-3.267-0.482-4.821c1.276-1.758,3.176-3.063,4.482-4.807
		c3.659-4.88,5.875-9.571,2.207-16.024c-4.89-8.599-9.558-17.474-11.818-27.272c-0.941-4.077-1.741-8.477,2.005-11.504
		c4.043-3.266,8.544-1.402,12.132,0.917c4.396,2.842,8.816,5.485,13.776,7.077C96.374,26.006,99.837,35.99,99.767,48.961z"/>
	<path fill-rule="evenodd" clip-rule="evenodd" fill="#CC9932" d="M281.849,419.855c0.704,7.725-1.724,16.208-1.268,24.817
		c0.147,2.769-0.88,5.178-3.193,5.921c-6.764,2.168-8.856,8.023-11.145,13.532c-1.612,3.878-3.715,7.199-7.761,7.862
		c-4.141,0.679-5.784-3.141-7.508-6.159c-4.551-7.97-11.817-14.415-13.417-24.052c-1.157-6.967-1.284-14.101-0.208-20.896
		c1.198-7.582,8.271-10.079,14.788-10.328c7.461-0.285,13.17-3.348,18.924-7.36c6.184-4.308,10.253-2.21,10.78,5.237
		c0.016,0.22,0.008,0.438,0.008,0.656C281.849,412.373,281.849,415.661,281.849,419.855z"/>
	<path fill-rule="evenodd" clip-rule="evenodd" fill="#CC9932" d="M359.712,362.793c0.129,7.954-1.656,13.544-6.638,17.847
		c-0.826,0.715-1.79,1.42-2.293,2.345c-6.477,11.982-15.658,11.481-26.506,6.434c-6.417-2.987-13.307-4.556-17.393-11.357
		c-4.921-8.186-3.654-19.494,3.989-24.884c3.085-2.177,5.741-4.67,8.34-7.282c7.035-7.069,16.064-7.367,24.693-5.833
		C353.059,341.688,359.729,353.183,359.712,362.793z"/>
	<path fill-rule="evenodd" clip-rule="evenodd" fill="#CC9932" d="M217.48,84.135c-1.391,6.077-2.472,12.918-4.613,19.414
		c-1.46,4.427-6.081,6.238-10.359,6.941c-6.865,1.128-13.213,3.895-19.922,5.453c-6.86,1.591-12.809-2.694-12.877-9.583
		c-0.107-10.826-0.812-21.759,3.858-31.996c2.59-5.675,5.348-11.171,10.972-14.755c9.024-5.751,17.66-4.088,23.733,4.817
		C212.273,70.294,216.814,75.874,217.48,84.135z"/>
	<path fill-rule="evenodd" clip-rule="evenodd" fill="#CC9932" d="M300.474,371.2c-0.742,3.388,1.236,7.018-1.724,9.631
		c-5.544,4.892-9.475,11.841-16.641,14.568c-4.7,1.788-8.887,0.418-10.166-5.547c-0.947-4.425-2.246-8.784-3.567-13.115
		c-3.097-10.144-7.35-19.764-12.538-29.049c-4.299-7.692-3.27-9.91,5.11-12.584c5.187-1.655,9.198-5.938,14.746-6.499
		c11.238-1.137,18.263,4.463,20.781,15.904C298.434,353.414,300.016,362.347,300.474,371.2z"/>
	<path fill-rule="evenodd" clip-rule="evenodd" fill="#CC9932" d="M136.694,329.833c0.223,10.256-4.413,14.18-9.514,17.081
		c-6.565,3.738-13.744,6.384-20.488,9.83c-3.4,1.737-5.742-0.172-7.532-1.994c-4.169-4.248-9.316-6.243-14.797-7.711
		c-7.591-2.028-11.588-8.655-10.019-16.581c0.712-3.601,1.246-7.251,1.627-10.903c1.051-10.076,14.606-16.385,23.259-11.014
		c1.683,1.043,2.504,2.507,3.285,3.813c5.914,9.882,14.275,13.77,25.797,12.402C134.938,323.97,136.692,326.375,136.694,329.833z"/>
	<path fill-rule="evenodd" clip-rule="evenodd" fill="#CC9932" d="M153.881,112.464c-8.918-0.001-8.478,0.005-8.34-9.911
		c0.098-7.04-3.488-13.264-7.071-19.198c-3.682-6.1-7.572-12.076-11.397-18.089c-2.756-4.333-1.561-7.542,3.178-8.808
		c8.318-2.222,16.714-4.239,25.175-5.814c6.066-1.128,9.698,3.188,12.799,7.5c2.885,4.014,5.957,7.936,2.261,13.504
		c-2.896,4.366-3.131,9.779-3.447,14.98c-0.408,6.728-0.685,13.472-1.416,20.167C164.831,114.036,159.065,112.299,153.881,112.464z"
		/>
	<path fill-rule="evenodd" clip-rule="evenodd" fill="#CC9932" d="M110.081,61.078c6.465-1.37,10.786,3.384,13.98,8.095
		c5.733,8.457,12.337,16.506,14.573,27.059c1.119,5.28,0.415,9.212-3.272,13.035c-3.132,3.247-6.188,6.42-10.044,8.923
		c-7.713,5.01-10.044,4.125-15.396-3.063c-7.262-9.751-11.861-21.028-12.76-33.411c-0.259-3.552-1.899-6.715-0.593-10.781
		C99.476,61.87,99.846,61.048,110.081,61.078z"/>
	<path fill-rule="evenodd" clip-rule="evenodd" fill="#CC9932" d="M171.171,170.455c1.653-0.215,3.288,0.209,4.809,1.208
		c5.44,3.564,11.308,6.078,17.479,8.24c8.119,2.845,9.358,7.589,4.246,14.678c-4.135,5.734-8.331,11.475-14.313,15.639
		c-2.988,2.08-5.879,2.449-7.817-0.463c-6.17-9.266-15.643-13.842-25.085-18.564c-0.381-0.191-0.741-0.487-1.018-0.81
		c-2.477-2.91-7.689-5.166-6.393-9.087c1.154-3.482,6.302-1.624,9.583-1.485c3.8,0.161,6.125-1.499,8.408-4.031
		C163.718,172.839,166.576,170.121,171.171,170.455z"/>
</g>
</svg>
