<?xml version="1.0" encoding="utf-8"?>
<!-- Generator: Adobe Illustrator 16.0.0, SVG Export Plug-In . SVG Version: 6.00 Build 0)  -->
<!DOCTYPE svg PUBLIC "-//W3C//DTD SVG 1.1//EN" "http://www.w3.org/Graphics/SVG/1.1/DTD/svg11.dtd">
<svg version="1.1" id="Layer_1" xmlns="http://www.w3.org/2000/svg" xmlns:xlink="http://www.w3.org/1999/xlink" x="0px" y="0px"
	 width="500px" height="500px" viewBox="0 0 500 500" enable-background="new 0 0 500 500" xml:space="preserve">
<g>
	<path d="M488.338,0c1.316,0,2.631,0,3.947,0c0.324,3.319,1.436,6.794,0.822,9.929c-1.863,9.504-1.88,9.889,7.072,12.439
		c0,8.333,0,16.667,0,25c-1.495-3.451-2.85-6.971-4.51-10.34c-3.984-8.086-8.062-8.607-15.371-3.563
		c-6.25,4.313-13.259,7.525-19.921,11.247c-2.948,1.649-6.878,2.66-8.604,5.17c-4.97,7.226-9.04,15.067-13.468,22.664
		c-2.393,4.105-1.214,7.028,2.563,9.726c5.955,4.253,12.274,8.277,17.284,13.508c9.341,9.756,25.056,9.217,32.709-1.908
		c3.117-4.528,6.213-9.071,9.316-13.608c0,3.07,0,6.142,0,9.211c-8.746,8.878-8.746,14.848,0,23.685c0,3.509,0,7.017,0,10.526
		c-1.937-1.728-4.191-3.208-5.761-5.221c-12.17-15.614-29.32-15.134-40.286,1.237c-0.479,0.713-0.834,1.587-1.474,2.1
		c-8.158,6.526-11.108,14.932-9.039,25.09c1.793,8.802,3.28,17.709,5.801,26.306c1.521,5.186,6.099,6.084,10.785,2.886
		c3.374-2.302,6.304-5.248,9.641-7.608c10.055-7.113,20.215-14.08,30.333-21.105c0,3.947,0,7.895,0,11.843
		c-5.084,4.527-5.081,11.261,0,15.789c0,2.193,0,4.386,0,6.579c-2.097-1.944-4.562-3.617-6.225-5.879
		c-6.688-9.099-14.162-10.181-21.934-1.921c-6.927,7.362-13.183,15.404-19.224,23.526c-1.771,2.38-2.661,6.115-2.462,9.129
		c0.744,11.192,7.479,18.672,17.15,23.096c7.724,3.534,15.922,3.547,23.515-1.305c3.059-1.953,6.119-3.905,9.179-5.857
		c0,1.754,0,3.51,0,5.264c-2.733,1.645-6.199,2.718-8.029,5.066c-2.736,3.515-5.584,7.77-6.1,11.989
		c-0.747,6.105,0.588,12.457,0.956,18.707c0.252,4.258-1.188,9.8,0.974,12.442c2.353,2.877,7.992,3.065,12.199,4.426
		c0,1.754,0,3.51,0,5.263c-2.4,0-4.832-0.249-7.195,0.041c-15.813,1.95-26.097,7.237-29.751,24.116
		c-2.449,11.315-3.188,22.016,2.181,32.999c4.042,8.27,6.729,11.559,15.739,11.151c6.366-0.287,12.687-1.641,19.026-2.517
		c0,1.314,0,2.631,0,3.947c-7.245,3.026-14.55,5.924-21.718,9.124c-4.872,2.174-7.537,5.638-7.382,11.587
		c0.195,7.515-1.189,15.071-1.012,22.588c0.174,7.354,2.795,13.981,12.485,13.493c5.819-0.293,11.748,1.541,17.626,2.417
		c0,1.755,0,3.511,0,5.264c-7.899-2.51-15.893-6.348-24.128-2.248c-4.523,2.252-7.952,6.674-12.452,8.996
		c-8.164,4.218-13.004,10.195-13.324,19.515c-0.074,2.184,0.118,4.4-0.207,6.541c-1.404,9.282,1.615,14.441,10.594,17.233
		c13.153,4.089,26.353,6.73,39.518-0.037c0,2.633,0,5.264,0,7.895c-0.759,0.389-1.483,0.883-2.284,1.148
		c-8.778,2.928-9.027,3.438-7.009,12.375c0.656,2.905,0.942,5.895,1.398,8.846c-1.755,0-3.509,0-5.264,0
		c-0.785-10.829-7.2-17.846-16.456-21.913c-10.279-4.517-20.507-3.925-28.792,4.767c-5.874,6.161-12.413,9.982-21.187,10.929
		c-3.833,0.414-10.202-0.612-11.196,6.218c-28.508,0-57.02,0-85.527,0c-0.49-4.918-0.077-10.155-1.677-14.682
		c-2.549-7.224-3.853-15.643-12.257-19.303c-7.008-3.051-14.012-6.108-21.012-9.177c-5.026-2.202-10.056-2.348-13.156,2.649
		c-4.139,6.667-8.595,13.517-10.751,20.917c-1.763,6.053-0.357,13.028-0.357,19.595c-2.192,0-4.387,0-6.579,0
		c-1.368-6.407-1.377-13.573-4.424-19.045c-4.548-8.171-11.327-15.083-16.981-22.661c-3.438-4.605-7.478-5.912-12.294-2.622
		c-7.129,4.87-14.767,7.471-23.511,7.617c-6.691,0.112-11.39,4.272-13.155,10.573c-1.518,5.424-2.138,11.18,3.56,15.3
		c4.818,3.483,9.457,7.216,14.175,10.838c-2.632,0-5.264,0-7.896,0c-6.179-5.95-12.118-12.183-18.62-17.757
		c-4.778-4.096-10.263-1.886-11.55,4.413c-0.893,4.361-0.968,8.891-1.409,13.344c-1.754,0-3.508,0-5.263,0
		c-0.066-7.111-1.307-8.983-5.287-8.55c-7.044,0.769-14.1,1.541-21.171,1.901c-5.465,0.278-10.171,1.498-13.016,6.648
		c-1.754,0-3.508,0-5.264,0c0.877-3.937,2.077-7.834,2.567-11.816c1.167-9.462-4.944-16.606-8.175-24.699
		c-4.453-11.157-22.951-13.062-30.264-8.513c-5.987,3.723-12.104,7.237-18.164,10.843c-8.423,5.012-9.301,8.575-5.117,17.574
		c2.504,5.383,4.369,11.063,6.521,16.611c-2.193,0-4.386,0-6.579,0c-2.77-6.456-6.273-12.709-8.15-19.415
		c-3.56-12.72-20.656-18.7-32.907-10.14c-4.601,3.218-10.315,4.839-15.522,7.186c0-3.069,0-6.14,0-9.209
		c2.601-0.873,5.333-1.473,7.779-2.664c9.997-4.867,10.325-8.57,1.283-15.229c-6.787-4.996-9.254-11.044-7.039-19.516
		c0.77-2.943-1.267-6.618-2.022-9.961c0-2.194,0-4.386,0-6.58c11.401,0.451,20.611-5.282,29.756-10.89
		c1.973-1.208,4.387-4.121,4.2-6.011c-0.863-8.689-0.982-17.983-4.351-25.77c-5.265-12.168-16.302-17.14-29.605-16.539
		c0-1.316,0-2.633,0-3.947c7.11-0.446,14.242-0.682,21.325-1.395c8.237-0.825,10.792-5.576,7.077-12.862
		c-2.233-4.38-5.074-8.463-7.145-12.912c-2.814-6.047-6.755-11.558-5.627-19.14c1.918-12.892-5.457-16.758-15.63-18.166
		c0-2.193,0-4.386,0-6.579c1.7,0.193,3.413,0.309,5.097,0.592c4.928,0.83,9.934,2.784,14.746,2.374
		c9.827-0.839,15.889-8.152,19.378-16.236c5.104-11.821,8.04-24.463,6.831-37.644c-0.517-5.627-4.568-10.04-9.997-9.501
		c-12.283,1.219-24.764,1.85-36.055,7.784c0-2.193,0-4.386,0-6.579c9.295-1.896,18.591-3.792,29.218-5.96
		c-8.434-13.661-18.305-22.76-29.218-30.882c0-2.632,0-5.264,0-7.896c1.514,1.369,3.076,2.688,4.533,4.114
		c5.852,5.729,11.681,11.479,17.5,17.242c4.418,4.376,8.313,9.485,13.328,13.004c6.839,4.799,11.801,1.699,12.055-6.382
		c0.26-8.276,2.226-15.694,7.887-22.535c5.191-6.274,9.141-13.854,12.352-21.406c3.253-7.651,0.541-14.824-5.517-17.248
		c-6.328-2.532-12.794-5.499-19.433-6.259c-7.016-0.803-14.298,1.03-21.477,1.225c-4.976,0.134-8.328,2.099-11.142,6.136
		c-3.035,4.353-6.697,8.268-10.086,12.373c0-3.51,0-7.018,0-10.526c11.062-10.298,10.23-16.824,0-21.053c0-3.509,0-7.018,0-10.526
		c3.74,3.513,7.682,6.836,11.179,10.575c8.85,9.464,24.331,8.223,29.773,0.103c6.62-9.877,16.112-15.798,25.423-22.267
		c6.058-4.208,6.07-9.146-0.029-13.187c-4.46-2.955-9.383-5.216-13.823-8.197c-7.412-4.978-14.831-8.489-24.178-5.369
		c-2.885,0.964-6.691,0.523-9.676-0.473c-5.207-1.734-8.825-0.213-11.93,3.785c-2.25,2.9-4.492,5.809-6.738,8.714
		c0-3.51,0-7.018,0-10.526c0.853-0.87,2.149-1.595,2.487-2.632c2.395-7.36-0.024-14.224-2.487-21.053c0-6.579,0-13.158,0-19.736
		c7.63,6.939,8.175,15.984,8.069,25.47c-0.032,2.836,1.241,7.141,3.282,8.243c4.364,2.357,9.685,4.395,14.499,4.163
		c9.606-0.459,19.233-2.075,28.669-4.074c9.001-1.907,10.616-7.727,6.201-15.99c-3.371-6.308-5.647-13.2-8.409-19.835
		c-0.734-1.765-1.447-3.541-2.194-5.301c-1.572-3.71-3.654-5.691-7.991-3.323c-8.319,4.542-17.452,4.54-26.577,4.038
		c-5.191-0.283-10.367-0.848-15.55-1.286c0-1.315,0-2.631,0-3.947c2.393,0,4.851-0.357,7.169,0.06
		c13.014,2.333,25.246,1.271,37.291-5.157C54.16,12.189,56.747,9.93,56.759,0c2.193,0,4.386,0,6.579,0
		c2.999,3.675,5.368,8.244,9.106,10.864c13.968,9.789,35.681,5.25,43.524-10.864c1.316,0,2.632,0,3.948,0
		c-2.025,8.207-7.832,13.058-14.919,16.74c-4.683,2.433-7.388,5.301-5.379,11.349c2.487,7.489,3.869,15.339,5.92,22.98
		c1.25,4.657,4.012,7.906,9.369,6.779c9.407-1.98,18.755-4.243,28.125-6.396c12.294-2.824,21.356-14.887,19.196-29.089
		c-1.11-7.296-0.202-14.899-0.206-22.363c1.316,0,2.632,0,3.947,0c-0.518,13.814,2.892,27.957-3.752,41.294
		c-0.782,1.57-0.323,4.744,0.825,6.119c4.678,5.602,10.221,10.543,18.244,9.036c5.831-1.096,11.652-2.871,17.055-5.289
		c2.091-0.936,4.361-4.565,4.216-6.817c-0.428-6.699,2.815-11.171,7.291-15.123c7.894-6.971,8.187-11.84,0.631-19.524
		C207.177,6.336,203.621,3.224,200.18,0c2.632,0,5.264,0,7.895,0c3.792,4.89,7.656,9.726,11.361,14.68
		c6.603,8.823,11.794,10.658,22.05,3.582c1.403-0.969,3.048-1.681,4.233-2.86c4.689-4.663,12.396-6.945,12.355-15.401
		c2.192,0,4.387,0,6.579,0c3.971,12.21,4.888,25.461,11.339,36.355c7.22-2.847,13.423-5.618,19.84-7.754
		c14.17-4.72,19.43-17.562,26.717-28.602c28.947,0,57.895,0,86.842,0c2.819,3.122,5.333,6.605,8.517,9.299
		c9.687,8.194,19.933,15.743,29.382,24.19c8.562,7.655,14.293,8.829,21.135-0.236C476.163,22.999,481.79,11.153,488.338,0z
		 M311.889,244.805c-1.766,5.908-3.471,11.836-5.311,17.721c-3.021,9.659-0.76,14.762,8.277,18.549
		c3.357,1.405,6.791,2.695,9.975,4.431c10.971,5.974,12.717,6.214,20.99-3.153c5.073-5.743,9.756-9.321,17.617-6.167
		c1.756,0.704,4.109-0.087,7.09-0.233c0-9.947,0.104-19.294-0.037-28.636c-0.082-5.47-5.449-8.046-10.26-5.571
		c-7.195,3.704-14.345,5.187-22.635,1.806c-7.072-2.884-14.449-8.719-22.883-2.903c4.332-6.055,7.032-12.192,1.295-18.968
		c-1.821-2.15-3.374-4.527-5.166-6.703c-3.949-4.792-7.625-9.888-12.067-14.179c-4.478-4.325-9.538-6.344-14.705-0.1
		c-1.833,2.213-4.837,3.521-7.434,5.023c-10.884,6.294-12.452,15.179-9.521,28.098c3.164,13.928,14.698,19.865,25.512,26.023
		c5.944,3.386,10.84,0.617,14.123-5.761C308.367,250.939,310.171,247.894,311.889,244.805z M191.386,233.939
		c-2.656-0.351-4.581-0.513-6.467-0.873c-5.833-1.112-10.829,0.845-13.335,5.892c-4.464,8.992-8.641,18.233-11.727,27.763
		c-1.862,5.752-1.539,12.521,4.549,16.461c8.396,5.433,16.742,11.214,25.817,15.254c10.801,4.806,14.998,1.672,19.973-7.875
		c0.794-1.524,1.143-3.441,2.281-4.604c10.048-10.26,8.714-20.785,3.067-33.052c-3.881-8.433-7.523-14.574-17.566-14.965
		c-2.023-0.08-3.961-2.352-6.993-4.284c11.123-1.443,16.758,0.22,23.034,5.61c1.151,0.988,3.102,1.384,4.703,1.433
		c2.815,0.087,5.646-0.305,7.159-0.407c4.402-6.119,8.409-11.604,12.326-17.154c4.709-6.675,11.871-3.706,18.027-4.78
		c1.952-0.34,5.257-1.277,5.358-2.216c0.241-2.278-0.508-5.094-1.853-6.982c-1.268-1.781-3.75-2.762-5.8-3.91
		c-9.356-5.239-19.378-9.009-27.25-17.11c-7.436-7.655-13.857-7.385-19.126,0.205c-6.159,8.873-12.251,17.379-20.517,24.639
		c-6.639,5.831-5.207,10.635,1.986,16.416C190.047,230.212,190.364,231.893,191.386,233.939z M401.324,77.837
		c9.654-1.758,18.118-3.073,26.445-4.98c1.998-0.457,4.011-2.583,5.208-4.457c3.578-5.599,6.893-11.379,10.051-17.228
		c3.938-7.292,1.696-14.529-5.037-19.735c-10.062-7.783-19.734-16.073-29.748-23.922c-2.978-2.332-6.361-4.432-9.896-5.692
		c-4.415-1.575-9.743,3.264-8.502,7.602c2.738,9.545-0.102,17.518-5.292,25.502c-3.678,5.66-7.411,11.88-8.749,18.339
		c-2.62,12.658-1.254,16.922,5.635,19.33C388.256,74.977,395.434,76.325,401.324,77.837z M180.863,375.148
		c1.825-1.6,3.597-2.744,4.835-4.309c6.808-8.599,13.831-17.063,20.006-26.104c1.939-2.839,2.651-7.587,1.865-10.986
		c-1.43-6.18-3.917-12.255-6.836-17.926c-5.664-11.004-16.586-15.578-27.259-19.496c-8.309-3.051-11.313,5.596-15.633,10.101
		c-4.463,4.65-8.877,9.949-11.288,15.8c-2.368,5.746-2.193,12.54-3.132,18.876c-0.402,2.711-1.936,6.026-0.899,7.978
		c1.234,2.325,4.484,3.939,7.191,5.06C161.389,358.97,172.613,364.387,180.863,375.148z M205.885,312.827
		c3.116,8.176,5.993,17.13,9.968,25.568c2.051,4.354,7.092,6.387,11.828,4.818c11.747-3.89,23.43-8.074,34.799-12.938
		c3.088-1.321,6.111-5.106,7.173-8.402c2.809-8.731,4.576-17.802,6.665-26.758c1.297-5.571-1.067-8.633-7.053-8.184
		c-10.386,0.779-19.676-1.536-28.028-7.855c-1.841-1.394-4.244-2.049-6.392-3.038c-4.587-2.116-8.338-1.224-11.033,3.169
		c-5.149,8.39-10.373,16.735-15.316,25.245C207.252,306.593,206.953,309.28,205.885,312.827z M268.166,137.485
		c-7.324,1.536-14.598,3.399-21.985,4.527c-10.023,1.531-11.999,3.063-14.515,13.19c-0.562,2.264-1.534,4.444-1.937,6.73
		c-2.075,11.797-0.612,22.939,9.72,30.328c9.325,6.669,20.174,10.248,31.861,10.299c1.579,0.007,3.444-0.562,4.696-1.501
		c7.387-5.539,14.624-11.275,21.925-16.926c4.641-3.595,5.078-8.59,0.117-11.727c-9.603-6.073-14.26-15.246-17.544-25.445
		C278.553,140.903,275.339,136.988,268.166,137.485z M480.442,263.842c0-2.192,0.189-4.405-0.032-6.574
		c-1.098-10.758-2.559-21.231-15.955-23.968c-2.646-0.54-5.144-2.196-7.512-3.658c-8.097-4.998-15.536-0.793-22.584,2.193
		c-5.398,2.287-6.243,8.058-6.671,13.795c-0.815,10.965-2.34,21.878-3.591,32.81c-0.489,4.284-1.45,8.563-1.447,12.845
		c0.005,6.493,3.687,9.34,9.986,7.52c9.83-2.839,19.553-6.073,29.227-9.417C477.839,283.863,481.339,279.395,480.442,263.842z
		 M47.593,464.981c3.188-0.582,5.147-0.438,6.506-1.271c6.409-3.935,13.036-7.662,18.856-12.365
		c6.852-5.536,7.735-9.515,3.771-17.44c-3.99-7.977-8.647-15.713-13.817-22.981c-6.134-8.626-12.247-10.418-21.626-6.376
		c-7.82,3.37-15.721,7.102-22.518,12.121c-5.312,3.924-9.261,9.868-13.209,15.35c-1.14,1.583-1.146,5.369-0.008,6.941
		c3.208,4.434,7.552,8.028,10.962,12.337C24.919,461.93,38.681,458.954,47.593,464.981z M387.596,473.009
		c0.248,0.037,0.498,0.073,0.749,0.11c0,2.63-0.289,5.298,0.049,7.882c1.612,12.381,6.985,16.38,18.859,12.229
		c5.237-1.83,10.872-2.773,15.781-5.215c7.015-3.488,13.67-7.773,20.209-12.123c4.546-3.025,4.561-7.955,4.251-12.928
		c-0.287-4.624-0.649-9.369,0.051-13.903c1.213-7.866-1.835-14.427-9.696-16.144c-8.984-1.962-18.226-2.815-27.385-3.867
		c-1.766-0.203-4.163,0.36-5.444,1.498c-6.104,5.411-12.935,10.361-14.084,19.466C389.967,457.698,388.72,465.347,387.596,473.009z
		 M51.03,346.053c11.999-0.01,17.568-5.617,17.57-17.097c0-3.068,0.326-6.179-0.065-9.197c-0.907-6.99,3.405-10.326,8.706-12.873
		c3.264-1.568,6.931-2.311,10.156-3.939c3.097-1.565,5.856-3.799,8.765-5.737c-2.636-2.581-5.263-5.173-7.917-7.732
		c-0.293-0.283-0.739-0.42-1.128-0.587c-10.03-4.343-20.101-8.593-30.08-13.051c-6.122-2.734-12.288-3.63-17.37,1.325
		c-4.604,4.489-9.832,9.284-12.13,15.009c-6.152,15.33-8.451,20.702,2.543,34.501c2.94,3.689,6.101,7.39,8.12,11.584
		C41.058,344.196,45.196,346.805,51.03,346.053z M231.694,427.449c1.717-8.677-3.503-15.445-10.563-19.916
		c-8.875-5.621-14.579-12.986-18.513-22.448c-2.813-6.77-10.15-7.201-13.654-0.555c-2.504,4.746-3.806,10.414-4.414,15.807
		c-0.952,8.447-2.725,16.296-7.511,23.566c-10.21,15.511-8.399,12.944,2.283,24.45c7.58,8.163,15.599,12.802,27.383,9.697
		C219.512,454.68,232.934,444.68,231.694,427.449z M53.979,202.559c-1.023,5.232,2.311,8.307,8.395,9.418
		c12.622,2.303,25.187,4.979,37.873,6.839c2.971,0.435,7.324-0.833,9.332-2.943c7.425-7.807,13.835-16.573,21.206-24.438
		c6.201-6.616,4.135-11.493-5.029-15.27c-6.196-2.554-11.814-6.499-17.73-9.75c-1.441-0.791-3.106-1.974-4.555-1.831
		c-12.092,1.192-24.897,1.036-34.53,9.766C61.148,181.409,54.053,189.497,53.979,202.559z M267.285,390.492
		c0.562-0.207,1.124-0.412,1.686-0.617c-4.813-12.49-8.825-25.375-14.727-37.328c-3.881-7.859-9.284-8.151-17.648-4.335
		c-2.091,0.953-4.489,1.252-6.762,1.781c-7.699,1.798-15.672,2.834-23.045,5.524c-9.43,3.44-10.271,10.353-5.39,18.688
		c2.491,4.257,5.207,8.404,7.386,12.816c4.339,8.785,11.434,14.997,19.339,20.107c2.524,1.631,6.871,1.148,10.227,0.625
		c5.24-0.82,10.278-2.943,15.52-3.718C263.538,402.604,267.303,399.111,267.285,390.492z M372.234,255.759
		c0.578,0.132,1.155,0.263,1.732,0.394c-1.592,17.984,5.296,33.742,13.158,49.123c3.889,7.61,9.5,8.566,16.432,3.601
		c2.443-1.753,4.52-4.147,7.155-5.473c5.753-2.892,7.748-7.507,7.963-13.614c0.179-5.146,1.045-10.265,1.515-15.406
		c0.821-9.003,1.962-18.003,2.197-27.024c0.135-5.237-2.343-9.044-8.85-7.926c-8.922,1.531-16.305-1.639-23.008-7.52
		c-5.398-4.737-9.513-4.423-12.353,1.98C375.152,240.718,374.131,248.434,372.234,255.759z M63.436,218.428
		c-11.923-0.031-11.597-0.017-12.033,9.397c-0.428,9.232-1.286,18.477-2.561,27.631c-1.221,8.776,0.172,12.062,8.632,15.765
		c8.03,3.516,15.973,7.364,24.286,10.034c3.303,1.062,8.012,0.346,11.192-1.29c10.478-5.388,13.091-16.02,14.982-26.344
		c2.97-16.216-2.798-27.448-15.835-30.562C81.898,220.621,71.344,219.658,63.436,218.428z M371.02,497.358
		c15.505,1.429,14.152-2.145,12.493-13.854c-0.918-6.479-1.001-13.231-0.339-19.745c1.146-11.278-0.057-14.921-9.408-18.33
		c-7.814-2.85-15.855-5.23-23.977-7c-2.766-0.602-6.69,0.485-9.002,2.233c-4.398,3.323-7.477,8.558-12.089,11.394
		c-6.243,3.837-7.146,9.254-5.952,15.032c1.367,6.623,3.621,13.195,6.462,19.343c2.968,6.421,8.713,10.369,15.821,10.802
		C353.662,497.761,362.354,497.358,371.02,497.358z M287.021,417.563c-2.477,12.41,1.147,23.007,9.658,32.089
		c8.853,9.447,13.08,13.281,23.436,2.153c1.029-1.108,2.186-2.132,3.404-3.033c8.303-6.145,15.61-13.079,16.916-24.017
		c0.614-5.174,0.184-10.463,0.592-15.672c0.363-4.63-1.778-7.447-5.715-9.132c-10.404-4.452-20.774-9.024-31.359-13.007
		c-2.26-0.852-6.285-0.379-7.938,1.159c-5.179,4.821-10.163,10.071-9.075,18.314C287.422,410.073,287.021,413.845,287.021,417.563z
		 M326.031,91.957c-1.178,0.243-2.301,0.292-3.27,0.702c-9.254,3.918-18.478,7.91-27.719,11.854
		c-9.453,4.036-16.897,14.998-14.174,24.575c3.18,11.175,8.213,21.929,13.426,32.377c2.885,5.786,9.174,5.894,13.641,1.051
		c2.596-2.812,4.583-6.223,6.615-9.506c4.01-6.479,8.333-12.203,16.097-15.011c4.592-1.662,9.033-4.833,12.426-8.391
		c2.97-3.115,3.069-7.438-1.034-10.842c-5.586-4.633-7.971-10.853-9.178-17.954C332.243,97.186,331.412,92.448,326.031,91.957z
		 M240.588,135.117c4.95-0.259,11.476-0.24,17.904-1.012c13.913-1.671,13.802-1.857,16.829-15.477
		c0.637-2.87,2.837-5.442,3.235-8.305c0.614-4.419,1.457-9.365,0.087-13.364c-1.904-5.562-5.715-10.481-8.799-15.624
		c-4.263-7.112-10.226-9.736-18.21-6.237c-9.329,4.09-18.473,8.911-26.926,14.569c-5.064,3.392-7.602,9.424-5.177,15.988
		c2.955,7.998,6.133,15.917,9.338,23.82C230.7,133.988,233.938,136.429,240.588,135.117z M139.271,410.761
		c-1.181-3.346-1.666-7.205-3.679-9.938c-5.285-7.172-22.1-12.016-30.635-8.878c-7.16,2.634-14.275,5.622-20.947,9.294
		c-10.079,5.549-11.369,11.383-6.355,21.964c2.1,4.434,3.944,9.057,5.276,13.77c2.632,9.317,11.487,15.648,20.678,14.299
		C124.155,448.257,138.34,431.845,139.271,410.761z M358.1,185.566c12.989,0.501,16.34-3.701,10.961-16.262
		c-0.41-0.96-0.19-2.177-0.538-3.179c-2.834-8.192-1.329-14.847,5.28-21.066c3.313-3.12,5.194-8.19,6.686-12.722
		c2.454-7.448-1.36-12.466-9.117-12.55c-7.267-0.077-13.03,3.238-18.359,8.126c-5.275,4.839-10.83,9.696-17.043,13.123
		c-12.727,7.015-23.062,14.989-24.754,31.059c-0.633,6.014,0.425,8.812,6.028,9.43C330.504,182.986,343.797,184.171,358.1,185.566z
		 M384.391,17.062c0-10.514-2.376-12.818-12.857-13.155c-6.707-0.216-13.403-0.805-20.102-1.267
		c-4.936-0.341-10.088-1.849-14.752-0.903c-11.084,2.247-15.469,12.077-20.495,20.734c-0.739,1.271,0.062,3.867,0.844,5.521
		c3.755,7.935,7.639,15.812,11.684,23.604c4.299,8.28,9.138,9.628,17.489,5.27c3.619-1.888,7.106-4.423,10.971-5.366
		C371.648,47.967,384.392,32.19,384.391,17.062z M345.696,413.558c1.454,7.507-2.257,14.3,5.702,17.354
		c8.961,3.439,17.717,7.445,26.794,10.515c2.226,0.753,5.926-0.456,7.955-2.037c4.379-3.416,7.651-8.359,12.233-11.376
		c5.207-3.427,7.217-7.771,7.01-13.47c-0.203-5.607-1.237-11.205-1.16-16.796c0.097-7.2-3.316-11.784-9.827-13.396
		c-11.346-2.812-22.901-2.394-34.319-0.084c-5.99,1.21-9.776,5.315-11.123,11.112C347.418,402.035,346.52,408.844,345.696,413.558z
		 M307.229,186.171c-2.205,1.227-5.186,1.959-6.295,3.811c-0.795,1.328,0.574,4.338,1.606,6.259
		c0.896,1.667,2.571,2.981,4.079,4.236c8.969,7.472,14.266,17.202,17.739,28.149c1.864,5.878,10.246,10.696,16.536,10.991
		c7.085,0.333,13.962,1.162,19.199-5.08c0.314-0.372,1.322-0.069,1.878-0.342c5.71-2.798,11.627-5.285,16.94-8.707
		c1.589-1.024,2.477-4.938,1.958-7.117c-1.973-8.297-4.456-16.494-7.267-24.548c-0.457-1.312-3.559-2.461-5.379-2.377
		c-3.594,0.164-7.268,2.199-10.703,1.782C340.871,191.203,324.29,188.622,307.229,186.171z M60.557,348.611
		c-16.953-0.293-26.715,9.34-24.782,23.315c0.761,5.505,2.014,10.959,3.369,16.354c1.263,5.032,3.623,8.746,9.792,9.34
		c5.699,0.548,11.225,2.696,16.908,3.667c2.988,0.512,6.678,1.046,9.138-0.213c9.157-4.683,18.166-9.756,26.76-15.396
		c4.51-2.958,4.828-7.868,2.093-12.722C94.319,356.058,79.31,349.005,60.557,348.611z M170.007,144.683
		c-0.923,10.653,2.689,19.47,11.185,24.479c7.605,4.483,16.44,7.256,25.074,9.433c3.545,0.894,9.617-0.415,11.748-3.012
		c12.375-15.092,12.049-38.691,0.609-55.36c-2.833-4.129-6.477-5.458-10.47-4.205c-8.943,2.807-17.808,6.017-26.392,9.773
		C173.607,129.358,168.478,135.422,170.007,144.683z M404.027,184.834c8.91-1.378,17.906-2.354,26.709-4.24
		c9.396-2.014,10.384-3.592,10.175-13.122c-0.107-4.955-1.121-9.894-1.198-14.847c-0.209-12.984-1.144-14.088-13.859-14.511
		c-0.436-0.015-0.875-0.052-1.299-0.139c-7.963-1.644-15.91-3.382-23.893-4.928c-10.175-1.972-11.95-0.415-15.396,9.551
		c-1.356,3.932-4.348,7.661-7.467,10.535c-4.395,4.045-4.855,8.146-2.836,13.341C380.145,179.797,390.015,185.257,404.027,184.834z
		 M467.285,390.188c0.006-11.719-14.789-23.563-25.949-19.769c-8.809,2.999-17.124,7.602-25.376,12.021
		c-4.601,2.465-5.9,6.926-5.279,12.278c0.557,4.782,0.642,9.749,0.003,14.509c-1.064,7.914,2.89,14.473,10.449,15.846
		c7.35,1.335,14.694,2.721,22.082,3.817c11.337,1.682,24.204-8.567,24.085-18.92C467.222,403.378,467.285,396.784,467.285,390.188z
		 M178.041,394.255c-0.855-13.054-4.868-24.651-19.379-29.701c-1.801-0.624-3.424-1.761-5.138-2.642
		c-12.264-6.305-24.849-9.443-38.258-3.683c-3.532,1.519-6.387,3.418-5.912,8.16c1.132,11.297,6.033,19.199,17.881,21.6
		c2.696,0.546,5.571,1.277,7.81,2.76c3.038,2.015,6.614,4.344,8.02,7.423c1.984,4.353,2.952,9.51,2.983,14.331
		c0.042,6.685,4.155,10.115,9.075,12.063c4.503,1.779,9.414,0.562,12.955-3.636C174.421,413.414,177.516,404.722,178.041,394.255z
		 M111.635,226.191c0.425,3.899,0.285,5.959,0.902,7.761c4.427,12.914,20.995,24.235,34.804,23.94
		c5.887-0.128,10.209-2.545,12.892-8.047c2.442-5.012,5.109-9.953,8.124-14.638c7.699-11.97,5.54-23.403-6.385-31.222
		c-3.76-2.465-7.866-4.401-11.785-6.628c-10.025-5.692-12.709-5.672-20.607,3.074c-5.288,5.857-9.523,12.681-14.087,19.172
		C113.755,222.078,112.42,224.833,111.635,226.191z M167.285,127.198c0-9.216,0.086-10.085-6.924-10.776
		c-11.452-1.132-23.559-3.54-32.821,6.808c-0.822,0.919-2.047,1.606-3.218,2.062c-12.916,5.034-14.393,20.801-12.927,31.284
		c1.124,8.043,6.139,13.224,13.79,14.986c7.503,1.729,15.233,2.768,22.92,3.315c7.548,0.536,15.23-4.852,17.158-11.913
		c0.781-2.86-0.761-6.272-0.53-9.383C165.386,144.774,166.41,135.991,167.285,127.198z M140.71,489.638
		c2.169-0.185,4.602,0.207,6.462-0.647c10.293-4.729,20.875-9.05,30.53-14.88c10.175-6.147,9.877-12.812,1.224-19.787
		c-4.981-4.015-9.128-9.065-13.669-13.631c-2.995-3.011-5.687-6.465-9.106-8.881c-6.502-4.591-11.361-4.278-16.303,1.735
		c-6.675,8.126-14.096,14.979-23.512,19.829c-1.39,0.717-2.277,4.932-1.539,6.79c2.434,6.138,6.206,11.752,8.559,17.912
		C126.509,486.33,132.082,489.988,140.71,489.638z M307.936,35.246c-13.368,0.647-23.471,2.052-27.618,10.941
		c-3.933,8.427-6.326,18.664-5.621,27.814c0.558,7.252,6.9,14.027,10.534,21.086c2.66,5.165,6.086,5.51,11.082,3.025
		c8.18-4.066,16.564-7.772,25.057-11.151c8.725-3.471,13.949-16.1,9.581-23.944c-3.005-5.396-6.036-10.801-8.628-16.399
		C318.635,38.659,312.726,34.824,307.936,35.246z M127.144,318.435c0.486-0.052,2.443-0.184,4.374-0.487
		c11.593-1.814,17.645-11.157,24.912-18.695c3.796-3.938,3.836-8.637,1.182-13.689c-1.748-3.331-2.944-7.194-3.346-10.933
		c-0.565-5.265-3.352-8.18-7.861-10.08c-6.475-2.729-13.058-5.24-19.37-8.308c-7.153-3.476-9.646-3.23-13.805,3.596
		c-4.223,6.932-7.45,14.516-12.095,21.126c-2.606,3.707-2.66,6.529-0.895,10.06c2.39,4.779,5.604,9.318,7.047,14.366
		C109.782,314.126,116.135,318.334,127.144,318.435z M418.8,363.159c-0.505-4.941-1.618-9.917-1.36-14.819
		c0.32-6.126-1.963-10.98-5.475-15.465c-13.51-17.26-32.9-15.785-43.412,3.261c-4.506,8.166-4.942,17.169-3.551,25.947
		c1.724,10.853,6.744,14.518,17.305,15.616c6.381,0.663,12.672,2.148,19.031,3.044c1.965,0.276,4.547,0.566,5.956-0.42
		C413.24,376.166,420.227,372.423,418.8,363.159z M412.624,234.205c6.637-2.122,15.582-4.953,24.509-7.845
		c8.211-2.659,10.078-6.486,9.154-14.586c-0.746-6.519-0.716-13.278,0.111-19.785c0.98-7.671-0.084-8.733-7.939-7.312
		c-8.878,1.606-17.886,2.914-26.884,3.314c-7.991,0.354-16.041-0.878-24.073-1.099c-7.033-0.193-9.42,2.808-7.398,9.562
		c2.205,7.367,4.971,14.567,7.484,21.843C390.926,227.961,399.789,234.231,412.624,234.205z M423.871,347.362
		c0,3.866-0.147,6.285,0.025,8.682c0.665,9.16,1.348,9.412,10.441,9.84c8.811,0.414,17.574,1.721,26.379,2.354
		c1.955,0.141,4.504-0.354,5.812-1.586c0.828-0.777,0.212-3.583-0.375-5.262c-0.914-2.624-2.702-4.956-3.509-7.6
		c-2.976-9.747-6.571-19.433-8.153-29.424c-0.806-5.077,2.229-10.743,3.442-16.163c1.484-6.633-2.923-11.916-8.153-9.074
		c-9.54,5.186-19.416,6.305-29.97,6.374c-5.823,0.039-11.537,2.864-13.708,9.119c-1.935,5.574,3.819,7.195,6.493,10.083
		C419.001,331.625,426.447,337.795,423.871,347.362z M324.291,325.41c-0.005,6.48,5.05,11.499,11.979,11.357
		c6.179-0.127,11.891,0.491,17.451,3.741c4.138,2.414,8.657,1.241,10.759-3.36c3.881-8.492,10.135-14.485,18.246-18.574
		c4.295-2.161,5.155-4.741,2.738-8.741c-4.326-7.157-8.866-14.204-12.824-21.562c-5.563-10.339-17.125-11.267-24.262-1.832
		c-1.952,2.58-4.246,5.47-7.053,6.739C327.244,299.552,325.21,312.111,324.291,325.41z M107.881,133.157
		c2.365-10.585-4.804-18.762-9.58-27.765c-3.498-6.593-9.768-9.233-16.19-5.318c-9.849,6.006-19.59,12.409-28.439,19.771
		c-8.366,6.961-6.187,15.076,4.546,17.544c8.861,2.035,12.845,6.922,14.632,15.495c0.695,3.329,4.393,8.188,7.21,8.55
		c12.707,1.631,23.934-2.092,27.713-17.689C108.521,140.653,107.881,137.224,107.881,133.157z M229.451,76.982
		c2.819-0.745,4.895-1.2,6.909-1.843c6.519-2.079,13.01-4.24,19.519-6.348c9.595-3.104,15.225-12.172,12.872-22.115
		c-1.613-6.82-4.452-13.344-6.604-20.045c-2.983-9.291-7.263-11.019-15.124-5.627c-9.344,6.411-18.503,12.801-30.908,10.716
		c-3.999-0.674-6.243,2.364-6.694,6.299c-1.6,13.923,3.164,25.534,13.227,35C224.565,74.825,227.3,75.764,229.451,76.982z
		 M358.673,115.789c13.497,0.002,33.993-15.688,37.399-28.632c1.266-4.802-0.953-7.696-6.291-8.21
		c-11.754-1.131-15.068-4.102-18.742-15.107c-0.898-2.694-3.414-5.839-5.945-6.821c-8.395-3.262-24.805,5.108-26.41,13.892
		c-1.508,8.266-2.08,16.94-1.421,25.306C338.085,106.669,348.965,115.788,358.673,115.789z M418.06,131.579
		c16.731,0,27.854-7.025,34.943-18.718c2.952-4.87,3.012-9.004-0.863-12.693c-4.358-4.147-9.839-7.194-13.855-11.606
		c-10.747-11.812-27.763-9.505-35.628,4.151c-3.508,6.091-8.361,11.437-12.829,16.938c-5.503,6.778-3.97,15.244,4.046,17.358
		C402.972,129.408,412.402,130.55,418.06,131.579z M223.947,260.511c-1.326,5.211,0.999,9.079,6.502,10.396
		c13.594,3.255,25.816,11.748,40.572,10.595c2.38-0.187,4.898-0.211,7.186,0.361c5.389,1.349,8.974-1.05,11.646-5.207
		c2.748-4.272,0.797-8.036-2.368-10.967c-6.441-5.965-13.753-11.103-19.537-17.617c-3.444-3.879-4.706-9.714-6.871-14.702
		c-1.351-3.111-1.966-8.418-3.956-8.969c-3.686-1.021-9.288-0.666-12.024,1.606c-5.467,4.538-9.154,11.147-14.286,16.177
		C225.63,247.265,223.441,253,223.947,260.511z M324.172,296.624c0.6-5.248-2.144-8.254-6.525-10.16
		c-4.701-2.048-9.438-4.029-14.201-5.935c-4.559-1.823-9.199-1.616-11.943,2.671c-5.74,8.962-11.72,17.932-16.034,27.598
		c-4.401,9.857-2.827,12.003,7.454,15.522c8.705,2.982,15.945,7.234,19.043,16.69c1.908,5.82,5.377,6.702,10.91,3.265
		c9.58-5.949,10.246-7.012,7.545-17.766c-0.66-2.628-0.383-5.61,0.001-8.357C321.523,312.289,322.902,304.466,324.172,296.624z
		 M101.112,48.804c-1.136-11.887-4.06-21.476-16.471-25.781c-5.167-1.793-9.574-5.772-14.739-7.575
		c-3.706-1.294-9.141-2.174-11.852-0.346c-2.187,1.477-2.849,7.739-1.75,11.074c3.07,9.306,6.777,18.536,11.445,27.14
		c3.649,6.726,1.498,11.458-2.454,16.419c-1.357,1.702-3.327,2.999-4.35,4.85c-0.577,1.042-0.331,3.639,0.458,4.161
		c6.762,4.492,13.501,9.142,20.766,12.682c2.5,1.218,7.107,0.362,9.535-1.311c1.599-1.103,1.718-5.468,1.294-8.183
		c-1.303-8.353-1.641-16.189,4.109-23.41C99.2,55.889,99.819,52.078,101.112,48.804z M281.995,419.345
		c-0.08-0.006-0.16-0.009-0.241-0.015c0-3.504,0.141-7.017-0.028-10.514c-0.362-7.472-4.513-9.686-10.574-5.445
		c-5.896,4.125-11.756,7.227-19.414,7.492c-6.173,0.214-13.194,2.726-14.281,9.928c-1.056,6.977-1.449,14.818,0.719,21.33
		c2.833,8.505,8.221,16.231,13.045,23.961c1.629,2.611,5.771,6.396,7.22,5.812c3.079-1.239,5.546-4.732,7.532-7.779
		c3.223-4.943,4.516-11.207,11.323-13.39c1.516-0.486,2.832-3.729,3.031-5.818C281.138,436.41,281.479,427.87,281.995,419.345z
		 M303.304,367.374c0.978,3.45,1.294,7.287,3.052,10.279c6.584,11.199,18.785,12.705,29.737,15.528
		c7.87,2.028,10.688-5.937,14.987-10.526c0.148-0.16,0.293-0.33,0.461-0.464c6.589-5.216,8.445-12.268,7.845-20.259
		c-0.685-9.095-5.248-16.541-12.788-20.632c-7.731-4.196-16.639-1.554-24.094,1.996c-5.07,2.415-8.764,7.64-13.252,11.391
		C305.284,358.001,302.814,361.742,303.304,367.374z M169.917,98.922c0,1.97-0.002,3.938,0,5.908
		c0.01,9.7,4.842,13.439,14.303,11.057c6.211-1.563,12.635-2.593,18.554-4.909c3.89-1.522,8.893-4.198,10.206-7.592
		c4.917-12.72,6.337-25.103-3.551-37.366c-9.162-11.364-21.738-12.329-30.511,0.065C171.802,76.137,169.637,87.08,169.917,98.922z
		 M300.959,371.631c-1.558-8.881-2.975-17.789-4.701-26.636c-2.295-11.753-9.781-17.784-20.979-15.821
		c-5.303,0.929-10.134,4.347-15.301,6.316c-6.832,2.606-7.665,4.539-4.646,11.416c4.372,9.948,8.823,19.873,12.829,29.973
		c1.965,4.951,2.645,10.417,4.651,15.348c0.707,1.737,3.574,3.549,5.546,3.657C287.288,396.379,300.18,381.834,300.959,371.631z
		 M137.097,333.791c-0.024-7.172-1.697-9.466-8.816-8.628c-11.239,1.32-19.394-2.402-25.005-12.135c-0.82-1.422-2-2.712-3.247-3.797
		c-5.764-5.002-11.393-1.206-16.855,0.657c-4.488,1.529-6.6,5.087-6.757,10.008c-0.117,3.628-0.789,7.267-1.508,10.841
		c-1.653,8.223,2.37,14.218,10.186,16.816c4.949,1.647,9.296,5.024,14.088,7.25c2.458,1.144,5.747,2.705,7.882,1.93
		c6.821-2.476,13.409-5.709,19.837-9.119C132.373,344.711,136.854,340.693,137.097,333.791z M154.183,113.163
		c4.891-0.321,11.199,1.958,11.769-6.344c0.474-6.908,0.609-13.854,1.433-20.718c0.555-4.614,1.453-9.368,3.253-13.611
		c3.667-8.647-5.15-22.27-14.59-21c-8.626,1.16-17.107,3.57-25.555,5.799c-4.723,1.245-5.854,4.415-3.125,8.702
		c3.793,5.958,8.049,11.694,11.165,17.992c3.065,6.195,6.643,12.893,6.959,19.515C145.951,113.1,144.787,113.155,154.183,113.163z
		 M110.298,60.441c-11.141,1.396-15.509,6.351-14.003,16.633c1.684,11.497,4.659,22.536,10.242,32.923
		c7.405,13.771,12.902,15.186,24.264,5.031c9.029-8.069,11.397-11.987,6.622-22.785c-4.007-9.061-10.038-17.369-16.093-25.308
		C118.934,63.794,114.049,62.55,110.298,60.441z M141.475,181.687c3.601,3.886,6.01,7.985,9.592,10.057
		c8.874,5.135,18.368,9.128,24.336,18.211c2.025,3.082,5.289,3.685,8.122,0.72c5.461-5.717,11.055-11.353,16.004-17.497
		c3.189-3.96,2.383-7.973-2.606-10.483c-7.417-3.731-14.599-8.059-22.31-11.011c-2.803-1.073-8.332-0.136-10.029,1.971
		c-5.117,6.353-11.345,7.311-18.579,6.677C145.062,180.246,144.055,180.884,141.475,181.687z"/>
	<path fill-rule="evenodd" clip-rule="evenodd" fill="#FFFFFF" d="M0.18,156.579c3.389-4.105,7.051-8.021,10.086-12.373
		c2.814-4.037,6.166-6.002,11.142-6.136c7.179-0.194,14.461-2.027,21.477-1.225c6.638,0.76,13.105,3.727,19.433,6.259
		c6.058,2.424,8.77,9.597,5.517,17.248c-3.211,7.552-7.161,15.132-12.352,21.406c-5.661,6.841-7.626,14.259-7.887,22.535
		c-0.254,8.081-5.216,11.181-12.055,6.382c-5.014-3.519-8.909-8.628-13.328-13.004c-5.818-5.764-11.648-11.514-17.5-17.242
		c-1.457-1.426-3.02-2.745-4.533-4.114C0.18,169.736,0.18,163.158,0.18,156.579z"/>
	<path fill-rule="evenodd" clip-rule="evenodd" fill="#FFFFFF" d="M500.18,80.263c-3.104,4.537-6.199,9.08-9.316,13.608
		c-7.653,11.125-23.368,11.664-32.709,1.908c-5.01-5.23-11.329-9.255-17.284-13.508c-3.777-2.697-4.956-5.62-2.563-9.726
		c4.428-7.597,8.498-15.438,13.468-22.664c1.726-2.51,5.655-3.521,8.604-5.17c6.662-3.722,13.671-6.934,19.921-11.247
		c7.31-5.044,11.387-4.522,15.371,3.563c1.66,3.369,3.015,6.889,4.51,10.34C500.18,58.333,500.18,69.299,500.18,80.263z"/>
	<path fill-rule="evenodd" clip-rule="evenodd" fill="#FFFFFF" d="M162.021,0c0.004,7.464-0.904,15.067,0.206,22.363
		c2.161,14.202-6.901,26.265-19.196,29.089c-9.37,2.153-18.718,4.416-28.125,6.396c-5.356,1.127-8.118-2.122-9.369-6.779
		c-2.051-7.642-3.433-15.491-5.92-22.98c-2.009-6.048,0.696-8.916,5.379-11.349c7.087-3.683,12.895-8.533,14.919-16.74
		C133.952,0,147.987,0,162.021,0z"/>
	<path fill-rule="evenodd" clip-rule="evenodd" fill="#FFFFFF" d="M500.18,147.368c-10.118,7.025-20.278,13.992-30.333,21.105
		c-3.337,2.36-6.267,5.307-9.641,7.608c-4.687,3.198-9.264,2.3-10.785-2.886c-2.521-8.597-4.008-17.504-5.801-26.306
		c-2.069-10.158,0.881-18.563,9.039-25.09c0.64-0.513,0.995-1.387,1.474-2.1c10.966-16.371,28.116-16.852,40.286-1.237
		c1.569,2.013,3.824,3.493,5.761,5.221C500.18,131.579,500.18,139.474,500.18,147.368z"/>
	<path fill-rule="evenodd" clip-rule="evenodd" fill="#FFFFFF" d="M0.18,88.158c2.246-2.905,4.487-5.813,6.738-8.714
		c3.104-3.998,6.723-5.52,11.93-3.785c2.985,0.996,6.792,1.437,9.676,0.473c9.347-3.12,16.766,0.392,24.178,5.369
		c4.44,2.981,9.363,5.242,13.823,8.197c6.1,4.041,6.087,8.979,0.029,13.187c-9.311,6.469-18.803,12.39-25.423,22.267
		c-5.442,8.12-20.923,9.361-29.773-0.103c-3.497-3.739-7.439-7.062-11.179-10.575C0.18,105.701,0.18,96.931,0.18,88.158z"/>
	<path fill-rule="evenodd" clip-rule="evenodd" fill="#FFFFFF" d="M0.18,227.632c11.292-5.935,23.772-6.565,36.055-7.784
		c5.428-0.539,9.48,3.874,9.997,9.501c1.209,13.181-1.727,25.822-6.831,37.644c-3.489,8.084-9.551,15.397-19.378,16.236
		c-4.812,0.41-9.818-1.544-14.746-2.374c-1.685-0.283-3.397-0.398-5.097-0.592C0.18,262.72,0.18,245.175,0.18,227.632z"/>
	<path fill-rule="evenodd" clip-rule="evenodd" fill="#FFFFFF" d="M500.18,469.736c-13.165,6.768-26.364,4.126-39.518,0.037
		c-8.979-2.792-11.998-7.951-10.594-17.233c0.325-2.141,0.133-4.357,0.207-6.541c0.32-9.319,5.16-15.297,13.324-19.515
		c4.5-2.322,7.929-6.744,12.452-8.996c8.235-4.1,16.229-0.262,24.128,2.248C500.18,436.403,500.18,453.069,500.18,469.736z"/>
	<path fill-rule="evenodd" clip-rule="evenodd" fill="#FFFFFF" d="M63.338,500c-2.152-5.548-4.017-11.229-6.521-16.611
		c-4.184-8.999-3.306-12.562,5.117-17.574c6.06-3.605,12.176-7.12,18.164-10.843c7.312-4.549,25.811-2.645,30.264,8.513
		c3.231,8.093,9.342,15.237,8.175,24.699c-0.491,3.982-1.69,7.88-2.567,11.816C98.425,500,80.881,500,63.338,500z"/>
	<path fill-rule="evenodd" clip-rule="evenodd" fill="#FFFFFF" d="M500.18,222.368c-3.06,1.952-6.12,3.904-9.179,5.857
		c-7.593,4.852-15.791,4.839-23.515,1.305c-9.671-4.424-16.406-11.903-17.15-23.096c-0.199-3.014,0.691-6.749,2.462-9.129
		c6.041-8.122,12.297-16.164,19.224-23.526c7.771-8.26,15.245-7.178,21.934,1.921c1.662,2.262,4.128,3.935,6.225,5.879
		C500.18,195.175,500.18,208.772,500.18,222.368z"/>
	<path fill-rule="evenodd" clip-rule="evenodd" fill="#FFFFFF" d="M205.443,500c-4.718-3.622-9.357-7.354-14.175-10.838
		c-5.698-4.12-5.078-9.876-3.56-15.3c1.765-6.301,6.464-10.461,13.155-10.573c8.744-0.146,16.382-2.747,23.511-7.617
		c4.816-3.29,8.856-1.983,12.294,2.622c5.654,7.578,12.434,14.49,16.981,22.661c3.047,5.472,3.056,12.638,4.424,19.045
		C240.529,500,222.987,500,205.443,500z"/>
	<path fill-rule="evenodd" clip-rule="evenodd" fill="#FFFFFF" d="M200.18,0c3.441,3.224,6.997,6.336,10.299,9.695
		c7.556,7.685,7.263,12.554-0.631,19.524c-4.476,3.952-7.719,8.424-7.291,15.123c0.145,2.252-2.125,5.882-4.216,6.817
		c-5.403,2.418-11.224,4.193-17.055,5.289c-8.023,1.507-13.566-3.435-18.244-9.036c-1.148-1.375-1.607-4.549-0.825-6.119
		c6.645-13.337,3.235-27.479,3.752-41.294C177.373,0,188.777,0,200.18,0z"/>
	<path fill-rule="evenodd" clip-rule="evenodd" fill="#FFFFFF" d="M500.18,351.316c-6.34,0.876-12.66,2.229-19.026,2.517
		c-9.011,0.407-11.697-2.882-15.739-11.151c-5.369-10.983-4.63-21.684-2.181-32.999c3.654-16.879,13.938-22.166,29.751-24.116
		c2.363-0.29,4.795-0.041,7.195-0.041C500.18,307.456,500.18,329.386,500.18,351.316z"/>
	<path fill-rule="evenodd" clip-rule="evenodd" fill="#FFFFFF" d="M0.18,26.315c5.183,0.438,10.359,1.003,15.55,1.286
		c9.125,0.502,18.258,0.504,26.577-4.038c4.336-2.368,6.418-0.387,7.991,3.323c0.747,1.76,1.459,3.536,2.194,5.301
		c2.761,6.635,5.038,13.527,8.409,19.835c4.415,8.264,2.8,14.083-6.201,15.99c-9.436,1.999-19.062,3.615-28.669,4.074
		c-4.814,0.231-10.135-1.806-14.499-4.163c-2.042-1.103-3.314-5.407-3.282-8.243c0.105-9.485-0.439-18.53-8.069-25.47
		C0.18,31.579,0.18,28.947,0.18,26.315z"/>
	<path fill-rule="evenodd" clip-rule="evenodd" fill="#FFFFFF" d="M264.653,500c0-6.566-1.405-13.542,0.357-19.595
		c2.156-7.4,6.612-14.25,10.751-20.917c3.101-4.997,8.13-4.852,13.156-2.649c7,3.068,14.004,6.126,21.012,9.177
		c8.404,3.66,9.708,12.079,12.257,19.303c1.6,4.526,1.187,9.764,1.677,14.682C304.127,500,284.391,500,264.653,500z"/>
	<path fill-rule="evenodd" clip-rule="evenodd" fill="#FFFFFF" d="M488.338,0c-6.548,11.153-12.175,22.999-19.914,33.253
		c-6.842,9.065-12.572,7.892-21.135,0.236c-9.449-8.447-19.695-15.996-29.382-24.19c-3.184-2.693-5.697-6.177-8.517-9.299
		C435.705,0,462.021,0,488.338,0z"/>
	<path fill-rule="evenodd" clip-rule="evenodd" fill="#FFFFFF" d="M0.18,355.264c13.303-0.601,24.34,4.371,29.605,16.539
		c3.369,7.786,3.488,17.08,4.351,25.77c0.188,1.89-2.227,4.803-4.2,6.011c-9.146,5.607-18.355,11.341-29.756,10.89
		C0.18,394.736,0.18,375,0.18,355.264z"/>
	<path fill-rule="evenodd" clip-rule="evenodd" fill="#FFFFFF" d="M0.18,477.631c5.207-2.347,10.921-3.968,15.522-7.186
		c12.251-8.561,29.347-2.58,32.907,10.14c1.877,6.706,5.38,12.959,8.15,19.415c-18.86,0-37.719,0-56.579,0
		C0.18,492.544,0.18,485.089,0.18,477.631z"/>
	<path fill-rule="evenodd" clip-rule="evenodd" fill="#FFFFFF" d="M500.18,414.473c-5.878-0.876-11.807-2.71-17.626-2.417
		c-9.69,0.488-12.312-6.139-12.485-13.493c-0.178-7.517,1.207-15.073,1.012-22.588c-0.155-5.949,2.51-9.413,7.382-11.587
		c7.168-3.2,14.473-6.098,21.718-9.124C500.18,375,500.18,394.736,500.18,414.473z"/>
	<path fill-rule="evenodd" clip-rule="evenodd" fill="#FFFFFF" d="M322.549,0c-7.287,11.039-12.547,23.882-26.717,28.602
		c-6.417,2.136-12.62,4.907-19.84,7.754C269.541,25.461,268.624,12.21,264.653,0C283.951,0,303.25,0,322.549,0z"/>
	<path fill-rule="evenodd" clip-rule="evenodd" fill="#FFFFFF" d="M0.18,286.842c10.173,1.408,17.548,5.274,15.63,18.166
		c-1.127,7.582,2.813,13.093,5.627,19.14c2.071,4.449,4.911,8.532,7.145,12.912c3.716,7.286,1.16,12.037-7.077,12.862
		c-7.083,0.713-14.215,0.948-21.325,1.395C0.18,329.825,0.18,308.333,0.18,286.842z"/>
	<path fill-rule="evenodd" clip-rule="evenodd" fill="#FFFFFF" d="M409.391,500c0.994-6.83,7.363-5.804,11.196-6.218
		c8.773-0.946,15.312-4.768,21.187-10.929c8.285-8.691,18.513-9.283,28.792-4.767c9.256,4.067,15.671,11.084,16.456,21.913
		C461.144,500,435.269,500,409.391,500z"/>
	<path fill-rule="evenodd" clip-rule="evenodd" fill="#FFFFFF" d="M56.759,0C56.747,9.93,54.16,12.189,44.64,17.271
		c-12.045,6.428-24.277,7.49-37.291,5.157c-2.319-0.417-4.776-0.06-7.169-0.06c0-7.456,0-14.912,0-22.368C19.04,0,37.899,0,56.759,0
		z"/>
	<path fill-rule="evenodd" clip-rule="evenodd" fill="#FFFFFF" d="M258.074,0c0.041,8.456-7.666,10.738-12.355,15.401
		c-1.186,1.18-2.83,1.892-4.233,2.86c-10.256,7.076-15.447,5.241-22.05-3.582C215.73,9.726,211.867,4.89,208.074,0
		C224.74,0,241.408,0,258.074,0z"/>
	<path fill-rule="evenodd" clip-rule="evenodd" fill="#FFFFFF" d="M500.18,280.263c-4.207-1.36-9.847-1.549-12.199-4.426
		c-2.162-2.643-0.722-8.185-0.974-12.442c-0.368-6.25-1.703-12.602-0.956-18.707c0.516-4.22,3.363-8.475,6.1-11.989
		c1.83-2.349,5.296-3.422,8.029-5.066C500.18,245.175,500.18,262.72,500.18,280.263z"/>
	<path fill-rule="evenodd" clip-rule="evenodd" fill="#FFFFFF" d="M115.969,0c-7.843,16.114-29.556,20.653-43.524,10.864
		C68.706,8.244,66.336,3.675,63.338,0C80.881,0,98.425,0,115.969,0z"/>
	<path fill-rule="evenodd" clip-rule="evenodd" fill="#FFFFFF" d="M0.18,184.211c10.913,8.122,20.785,17.221,29.218,30.882
		c-10.627,2.168-19.923,4.063-29.218,5.96C0.18,208.772,0.18,196.491,0.18,184.211z"/>
	<path fill-rule="evenodd" clip-rule="evenodd" fill="#FFFFFF" d="M165.969,500c0.441-4.453,0.517-8.982,1.409-13.344
		c1.287-6.299,6.771-8.509,11.55-4.413c6.502,5.574,12.441,11.807,18.62,17.757C187.021,500,176.495,500,165.969,500z"/>
	<path fill-rule="evenodd" clip-rule="evenodd" fill="#FFFFFF" d="M0.18,421.053c0.755,3.343,2.792,7.018,2.022,9.961
		c-2.215,8.472,0.252,14.52,7.039,19.516c9.042,6.658,8.714,10.361-1.283,15.229c-2.445,1.191-5.178,1.791-7.779,2.664
		C0.18,452.631,0.18,436.842,0.18,421.053z"/>
	<path fill-rule="evenodd" clip-rule="evenodd" fill="#FFFFFF" d="M121.232,500c2.845-5.15,7.551-6.37,13.016-6.648
		c7.071-0.36,14.127-1.133,21.171-1.901c3.979-0.434,5.221,1.438,5.287,8.55C147.548,500,134.391,500,121.232,500z"/>
	<path fill-rule="evenodd" clip-rule="evenodd" fill="#FFFFFF" d="M492.285,500c-0.456-2.951-0.742-5.94-1.398-8.846
		c-2.019-8.938-1.77-9.447,7.009-12.375c0.801-0.266,1.525-0.76,2.284-1.148c0,7.458,0,14.913,0,22.369
		C497.549,500,494.916,500,492.285,500z"/>
	<path fill-rule="evenodd" clip-rule="evenodd" fill="#FFFFFF" d="M500.18,22.368c-8.952-2.551-8.936-2.936-7.072-12.439
		c0.613-3.135-0.498-6.609-0.822-9.929c2.631,0,5.264,0,7.895,0C500.18,7.456,500.18,14.912,500.18,22.368z"/>
	<path fill-rule="evenodd" clip-rule="evenodd" fill="#FFFFFF" d="M0.18,125c10.23,4.229,11.062,10.755,0,21.053
		C0.18,139.035,0.18,132.017,0.18,125z"/>
	<path fill-rule="evenodd" clip-rule="evenodd" fill="#FFFFFF" d="M500.18,113.158c-8.746-8.837-8.746-14.807,0-23.685
		C500.18,97.368,500.18,105.263,500.18,113.158z"/>
	<path fill-rule="evenodd" clip-rule="evenodd" fill="#FFFFFF" d="M0.18,53.947C2.643,60.776,5.061,67.64,2.667,75
		c-0.337,1.037-1.634,1.762-2.487,2.632C0.18,69.736,0.18,61.842,0.18,53.947z"/>
	<path fill-rule="evenodd" clip-rule="evenodd" fill="#FFFFFF" d="M500.18,175c-5.081-4.528-5.084-11.262,0-15.789
		C500.18,164.474,500.18,169.736,500.18,175z"/>
	<path fill-rule="evenodd" clip-rule="evenodd" fill="#FFFFFF" d="M191.386,233.939c-1.022-2.047-1.339-3.728-2.352-4.542
		c-7.193-5.781-8.625-10.585-1.986-16.416c8.266-7.26,14.358-15.766,20.517-24.639c5.269-7.59,11.69-7.86,19.126-0.205
		c7.872,8.102,17.894,11.871,27.25,17.11c2.05,1.148,4.532,2.129,5.8,3.91c1.345,1.889,2.094,4.704,1.853,6.982
		c-0.102,0.938-3.406,1.876-5.358,2.216c-6.156,1.074-13.318-1.895-18.027,4.78c-3.917,5.55-7.924,11.035-12.326,17.154
		c-1.514,0.103-4.344,0.494-7.159,0.407c-1.602-0.049-3.552-0.444-4.703-1.433c-6.276-5.391-11.911-7.054-23.034-5.61
		c3.031,1.933,4.97,4.204,6.993,4.284c10.043,0.391,13.686,6.532,17.566,14.965c5.647,12.267,6.981,22.792-3.067,33.052
		c-1.138,1.163-1.487,3.08-2.281,4.604c-4.975,9.547-9.171,12.681-19.973,7.875c-9.075-4.04-17.421-9.821-25.817-15.254
		c-6.088-3.94-6.411-10.709-4.549-16.461c3.086-9.529,7.263-18.771,11.727-27.763c2.506-5.047,7.502-7.004,13.335-5.892
		C186.805,233.427,188.73,233.589,191.386,233.939z"/>
	<path fill-rule="evenodd" clip-rule="evenodd" fill="#FFFFFF" d="M401.324,77.837c-5.891-1.512-13.068-2.86-19.885-5.242
		c-6.889-2.408-8.255-6.672-5.635-19.33c1.338-6.459,5.071-12.679,8.749-18.339c5.19-7.984,8.03-15.957,5.292-25.502
		c-1.241-4.338,4.087-9.177,8.502-7.602c3.534,1.261,6.918,3.36,9.896,5.692c10.014,7.849,19.686,16.139,29.748,23.922
		c6.733,5.206,8.975,12.443,5.037,19.735c-3.158,5.849-6.473,11.629-10.051,17.228c-1.197,1.874-3.21,4-5.208,4.457
		C419.442,74.764,410.979,76.079,401.324,77.837z"/>
	<path fill-rule="evenodd" clip-rule="evenodd" fill="#FFFFFF" d="M180.863,375.148c-8.25-10.762-19.474-16.179-31.15-21.008
		c-2.708-1.12-5.958-2.734-7.191-5.06c-1.036-1.951,0.498-5.267,0.899-7.978c0.939-6.336,0.764-13.13,3.132-18.876
		c2.41-5.851,6.825-11.149,11.288-15.8c4.319-4.505,7.324-13.151,15.633-10.101c10.673,3.918,21.595,8.492,27.259,19.496
		c2.918,5.671,5.406,11.746,6.836,17.926c0.787,3.399,0.074,8.147-1.865,10.986c-6.175,9.041-13.198,17.506-20.006,26.104
		C184.46,372.404,182.688,373.549,180.863,375.148z"/>
	<path fill-rule="evenodd" clip-rule="evenodd" fill="#FFFFFF" d="M205.885,312.827c1.068-3.547,1.367-6.234,2.61-8.375
		c4.943-8.51,10.167-16.855,15.316-25.245c2.695-4.393,6.446-5.285,11.033-3.169c2.147,0.989,4.551,1.645,6.392,3.038
		c8.353,6.319,17.643,8.635,28.028,7.855c5.985-0.449,8.35,2.612,7.053,8.184c-2.089,8.956-3.856,18.026-6.665,26.758
		c-1.062,3.296-4.085,7.081-7.173,8.402c-11.369,4.864-23.052,9.049-34.799,12.938c-4.735,1.568-9.776-0.464-11.828-4.818
		C211.878,329.957,209.001,321.003,205.885,312.827z"/>
	<path fill-rule="evenodd" clip-rule="evenodd" fill="#FFFFFF" d="M268.166,137.485c7.173-0.497,10.387,3.418,12.339,9.477
		c3.284,10.199,7.941,19.372,17.544,25.445c4.961,3.137,4.523,8.132-0.117,11.727c-7.301,5.65-14.538,11.387-21.925,16.926
		c-1.252,0.939-3.117,1.508-4.696,1.501c-11.688-0.051-22.536-3.63-31.861-10.299c-10.332-7.389-11.795-18.531-9.72-30.328
		c0.402-2.286,1.374-4.467,1.937-6.73c2.516-10.127,4.491-11.659,14.515-13.19C253.568,140.885,260.842,139.021,268.166,137.485z"/>
	<path fill-rule="evenodd" clip-rule="evenodd" fill="#FFFFFF" d="M480.443,263.842c0.896,15.553-2.604,20.021-18.58,25.545
		c-9.674,3.344-19.396,6.578-29.227,9.417c-6.3,1.82-9.981-1.026-9.986-7.52c-0.003-4.281,0.958-8.561,1.447-12.845
		c1.251-10.932,2.775-21.845,3.591-32.81c0.428-5.737,1.272-11.508,6.671-13.795c7.048-2.986,14.487-7.191,22.584-2.193
		c2.368,1.462,4.865,3.118,7.512,3.658c13.396,2.736,14.857,13.21,15.955,23.968C480.632,259.437,480.442,261.649,480.443,263.842z"
		/>
	<path fill-rule="evenodd" clip-rule="evenodd" fill="#FFFFFF" d="M47.593,464.981c-8.912-6.027-22.674-3.052-31.085-13.686
		c-3.41-4.309-7.753-7.903-10.962-12.337c-1.138-1.572-1.132-5.358,0.008-6.941c3.949-5.481,7.898-11.426,13.209-15.35
		c6.797-5.02,14.698-8.751,22.518-12.121c9.379-4.042,15.493-2.25,21.626,6.376c5.17,7.269,9.827,15.005,13.817,22.981
		c3.964,7.926,3.081,11.904-3.771,17.44c-5.82,4.703-12.447,8.431-18.856,12.365C52.74,464.544,50.781,464.399,47.593,464.981z"/>
	<path fill-rule="evenodd" clip-rule="evenodd" fill="#FFFFFF" d="M387.596,473.009c1.124-7.662,2.371-15.311,3.34-22.994
		c1.149-9.104,7.98-14.055,14.084-19.466c1.281-1.138,3.679-1.701,5.444-1.498c9.159,1.052,18.4,1.905,27.385,3.867
		c7.861,1.717,10.909,8.277,9.696,16.144c-0.7,4.534-0.338,9.279-0.051,13.903c0.31,4.973,0.295,9.902-4.251,12.928
		c-6.539,4.35-13.194,8.635-20.209,12.123c-4.909,2.441-10.544,3.385-15.781,5.215c-11.874,4.15-17.247,0.151-18.859-12.229
		c-0.338-2.584-0.049-5.252-0.049-7.882C388.094,473.082,387.844,473.046,387.596,473.009z"/>
	<path fill-rule="evenodd" clip-rule="evenodd" fill="#FFFFFF" d="M51.03,346.053c-5.834,0.752-9.972-1.856-12.83-7.795
		c-2.02-4.194-5.18-7.895-8.12-11.584c-10.995-13.799-8.696-19.171-2.543-34.501c2.298-5.725,7.526-10.52,12.13-15.009
		c5.082-4.955,11.249-4.06,17.37-1.325c9.979,4.458,20.05,8.708,30.08,13.051c0.389,0.167,0.835,0.304,1.128,0.587
		c2.654,2.56,5.282,5.151,7.917,7.732c-2.908,1.938-5.667,4.172-8.765,5.737c-3.225,1.629-6.893,2.371-10.156,3.939
		c-5.301,2.547-9.613,5.883-8.706,12.873c0.391,3.019,0.066,6.129,0.065,9.197C68.599,340.436,63.029,346.043,51.03,346.053z"/>
	<path fill-rule="evenodd" clip-rule="evenodd" fill="#FFFFFF" d="M231.694,427.449c1.239,17.23-12.183,27.23-24.989,30.602
		c-11.784,3.104-19.803-1.534-27.383-9.697c-10.682-11.506-12.493-8.939-2.283-24.45c4.786-7.271,6.559-15.119,7.511-23.566
		c0.608-5.393,1.909-11.061,4.414-15.807c3.504-6.646,10.84-6.215,13.654,0.555c3.934,9.462,9.638,16.827,18.513,22.448
		C228.191,412.004,233.411,418.772,231.694,427.449z"/>
	<path fill-rule="evenodd" clip-rule="evenodd" fill="#FFFFFF" d="M53.979,202.559c0.073-13.062,7.169-21.149,14.961-28.209
		c9.633-8.729,22.438-8.573,34.53-9.766c1.449-0.143,3.113,1.04,4.555,1.831c5.916,3.251,11.534,7.196,17.73,9.75
		c9.164,3.776,11.23,8.653,5.029,15.27c-7.371,7.864-13.781,16.631-21.206,24.438c-2.007,2.11-6.361,3.378-9.332,2.943
		c-12.686-1.859-25.251-4.536-37.873-6.839C56.29,210.865,52.956,207.791,53.979,202.559z"/>
	<path fill-rule="evenodd" clip-rule="evenodd" fill="#FFFFFF" d="M267.285,390.492c0.018,8.619-3.747,12.112-13.415,13.544
		c-5.241,0.774-10.279,2.897-15.52,3.718c-3.355,0.523-7.702,1.006-10.227-0.625c-7.905-5.11-15-11.322-19.339-20.107
		c-2.18-4.412-4.895-8.56-7.386-12.816c-4.88-8.335-4.04-15.247,5.39-18.688c7.373-2.69,15.346-3.727,23.045-5.524
		c2.272-0.529,4.671-0.828,6.762-1.781c8.364-3.816,13.768-3.524,17.648,4.335c5.901,11.953,9.913,24.838,14.727,37.328
		C268.409,390.08,267.848,390.285,267.285,390.492z"/>
	<path fill-rule="evenodd" clip-rule="evenodd" fill="#FFFFFF" d="M372.234,255.759c1.896-7.325,2.918-15.041,5.942-21.865
		c2.84-6.403,6.954-6.718,12.353-1.98c6.703,5.881,14.086,9.051,23.008,7.52c6.507-1.118,8.984,2.688,8.85,7.926
		c-0.235,9.021-1.376,18.021-2.197,27.024c-0.47,5.142-1.336,10.261-1.515,15.406c-0.215,6.107-2.21,10.723-7.963,13.614
		c-2.636,1.325-4.712,3.72-7.155,5.473c-6.932,4.966-12.543,4.01-16.432-3.601c-7.862-15.381-14.75-31.139-13.158-49.123
		C373.39,256.021,372.812,255.891,372.234,255.759z"/>
	<path fill-rule="evenodd" clip-rule="evenodd" fill="#FFFFFF" d="M63.436,218.428c7.908,1.23,18.462,2.193,28.664,4.631
		c13.037,3.114,18.805,14.347,15.835,30.562c-1.892,10.324-4.504,20.956-14.982,26.344c-3.18,1.636-7.889,2.352-11.192,1.29
		c-8.313-2.67-16.256-6.519-24.286-10.034c-8.459-3.702-9.853-6.988-8.632-15.765c1.275-9.154,2.133-18.398,2.561-27.631
		C51.839,218.411,51.513,218.396,63.436,218.428z"/>
	<path fill-rule="evenodd" clip-rule="evenodd" fill="#FFFFFF" d="M371.02,497.358c-8.666,0-17.357,0.402-25.99-0.125
		c-7.108-0.433-12.854-4.381-15.821-10.802c-2.841-6.147-5.095-12.72-6.462-19.343c-1.193-5.778-0.291-11.195,5.952-15.032
		c4.612-2.836,7.69-8.07,12.089-11.394c2.312-1.748,6.236-2.835,9.002-2.233c8.121,1.77,16.162,4.15,23.977,7
		c9.352,3.409,10.555,7.052,9.408,18.33c-0.662,6.514-0.579,13.267,0.339,19.745C385.172,495.214,386.524,498.787,371.02,497.358z"
		/>
	<path fill-rule="evenodd" clip-rule="evenodd" fill="#FFFFFF" d="M287.021,417.563c0-3.719,0.4-7.49-0.082-11.145
		c-1.088-8.243,3.896-13.493,9.075-18.314c1.653-1.538,5.679-2.011,7.938-1.159c10.585,3.982,20.955,8.555,31.359,13.007
		c3.937,1.685,6.078,4.502,5.715,9.132c-0.408,5.209,0.022,10.498-0.592,15.672c-1.306,10.938-8.613,17.872-16.916,24.017
		c-1.219,0.901-2.375,1.925-3.404,3.033c-10.355,11.128-14.583,7.294-23.436-2.153C288.169,440.57,284.545,429.974,287.021,417.563z
		"/>
	<path fill-rule="evenodd" clip-rule="evenodd" fill="#FFFFFF" d="M326.031,91.957c5.381,0.491,6.212,5.229,6.83,8.856
		c1.207,7.102,3.592,13.321,9.178,17.954c4.104,3.404,4.004,7.727,1.034,10.842c-3.393,3.558-7.834,6.729-12.426,8.391
		c-7.764,2.808-12.087,8.532-16.097,15.011c-2.032,3.283-4.02,6.693-6.615,9.506c-4.467,4.843-10.756,4.735-13.641-1.051
		c-5.213-10.448-10.246-21.202-13.426-32.377c-2.724-9.577,4.721-20.539,14.174-24.575c9.241-3.944,18.465-7.937,27.719-11.854
		C323.73,92.249,324.854,92.2,326.031,91.957z"/>
	<path fill-rule="evenodd" clip-rule="evenodd" fill="#FFFFFF" d="M240.588,135.117c-6.65,1.312-9.888-1.129-11.718-5.641
		c-3.205-7.903-6.383-15.822-9.338-23.82c-2.425-6.564,0.112-12.597,5.177-15.988c8.453-5.658,17.597-10.479,26.926-14.569
		c7.984-3.499,13.947-0.875,18.21,6.237c3.084,5.143,6.895,10.062,8.799,15.624c1.37,3.999,0.527,8.945-0.087,13.364
		c-0.398,2.862-2.599,5.435-3.235,8.305c-3.027,13.619-2.916,13.806-16.829,15.477C252.063,134.877,245.538,134.858,240.588,135.117
		z"/>
	<path fill-rule="evenodd" clip-rule="evenodd" fill="#FFFFFF" d="M139.271,410.761c-0.931,21.084-15.116,37.496-35.663,40.511
		c-9.191,1.35-18.046-4.981-20.678-14.299c-1.333-4.713-3.176-9.336-5.276-13.77c-5.014-10.581-3.724-16.415,6.355-21.964
		c6.672-3.672,13.787-6.66,20.947-9.294c8.536-3.138,25.35,1.706,30.635,8.878C137.605,403.556,138.09,407.415,139.271,410.761z"/>
	<path fill-rule="evenodd" clip-rule="evenodd" fill="#FFFFFF" d="M358.1,185.566c-14.303-1.396-27.596-2.58-40.856-4.041
		c-5.604-0.618-6.661-3.416-6.028-9.43c1.692-16.069,12.027-24.044,24.754-31.059c6.213-3.427,11.768-8.284,17.043-13.123
		c5.329-4.888,11.093-8.203,18.359-8.126c7.757,0.084,11.571,5.102,9.117,12.55c-1.491,4.531-3.372,9.602-6.686,12.722
		c-6.609,6.22-8.114,12.874-5.28,21.066c0.348,1.002,0.128,2.219,0.538,3.179C374.439,181.865,371.089,186.067,358.1,185.566z"/>
	<path fill-rule="evenodd" clip-rule="evenodd" fill="#FFFFFF" d="M384.391,17.062c0.001,15.129-12.742,30.905-27.219,34.437
		c-3.864,0.943-7.352,3.479-10.971,5.366c-8.352,4.358-13.19,3.011-17.489-5.27c-4.045-7.791-7.929-15.669-11.684-23.604
		c-0.782-1.653-1.583-4.249-0.844-5.521c5.026-8.657,9.411-18.487,20.495-20.734c4.664-0.945,9.816,0.562,14.752,0.903
		c6.698,0.462,13.395,1.051,20.102,1.267C382.015,4.243,384.391,6.548,384.391,17.062z"/>
	<path fill-rule="evenodd" clip-rule="evenodd" fill="#FFFFFF" d="M345.696,413.558c0.823-4.714,1.722-11.522,3.265-18.179
		c1.347-5.797,5.133-9.902,11.123-11.112c11.418-2.31,22.974-2.729,34.319,0.084c6.511,1.612,9.924,6.196,9.827,13.396
		c-0.077,5.591,0.957,11.188,1.16,16.796c0.207,5.699-1.803,10.043-7.01,13.47c-4.582,3.017-7.854,7.96-12.233,11.376
		c-2.029,1.581-5.729,2.79-7.955,2.037c-9.077-3.069-17.833-7.075-26.794-10.515C343.439,427.857,347.15,421.064,345.696,413.558z"
		/>
	<path fill-rule="evenodd" clip-rule="evenodd" fill="#FFFFFF" d="M307.229,186.171c17.062,2.451,33.643,5.032,50.293,7.058
		c3.436,0.417,7.109-1.618,10.703-1.782c1.82-0.084,4.922,1.065,5.379,2.377c2.811,8.054,5.294,16.251,7.267,24.548
		c0.519,2.179-0.369,6.093-1.958,7.117c-5.313,3.422-11.23,5.909-16.94,8.707c-0.556,0.272-1.563-0.03-1.878,0.342
		c-5.237,6.242-12.114,5.413-19.199,5.08c-6.29-0.295-14.672-5.113-16.536-10.991c-3.474-10.947-8.771-20.678-17.739-28.149
		c-1.508-1.255-3.184-2.569-4.079-4.236c-1.032-1.921-2.401-4.931-1.606-6.259C302.043,188.13,305.023,187.397,307.229,186.171z"/>
	<path fill-rule="evenodd" clip-rule="evenodd" fill="#FFFFFF" d="M60.557,348.611c18.753,0.394,33.763,7.446,43.278,24.346
		c2.734,4.854,2.417,9.764-2.093,12.722c-8.594,5.641-17.603,10.714-26.76,15.396c-2.46,1.259-6.149,0.725-9.138,0.213
		c-5.683-0.971-11.209-3.119-16.908-3.667c-6.169-0.594-8.529-4.308-9.792-9.34c-1.355-5.396-2.608-10.85-3.369-16.354
		C33.842,357.951,43.604,348.318,60.557,348.611z"/>
	<path fill-rule="evenodd" clip-rule="evenodd" fill="#FFFFFF" d="M170.007,144.683c-1.53-9.261,3.6-15.324,11.754-18.893
		c8.584-3.757,17.448-6.967,26.392-9.773c3.993-1.253,7.636,0.076,10.47,4.205c11.439,16.669,11.766,40.269-0.609,55.36
		c-2.13,2.597-8.202,3.905-11.748,3.012c-8.633-2.177-17.469-4.949-25.074-9.433C172.697,164.152,169.084,155.336,170.007,144.683z"
		/>
	<path fill-rule="evenodd" clip-rule="evenodd" fill="#FFFFFF" d="M404.027,184.834c-14.013,0.423-23.883-5.037-29.064-18.359
		c-2.02-5.195-1.559-9.296,2.836-13.341c3.119-2.874,6.11-6.604,7.467-10.535c3.446-9.966,5.222-11.522,15.396-9.551
		c7.982,1.546,15.93,3.284,23.893,4.928c0.424,0.087,0.863,0.124,1.299,0.139c12.716,0.423,13.65,1.526,13.859,14.511
		c0.077,4.953,1.091,9.892,1.198,14.847c0.209,9.53-0.779,11.108-10.175,13.122C421.934,182.479,412.938,183.456,404.027,184.834z"
		/>
	<path fill-rule="evenodd" clip-rule="evenodd" fill="#FFFFFF" d="M467.285,390.188c0,6.596-0.063,13.189,0.015,19.782
		c0.119,10.353-12.748,20.602-24.085,18.92c-7.388-1.097-14.732-2.482-22.082-3.817c-7.56-1.373-11.514-7.932-10.449-15.846
		c0.639-4.76,0.554-9.727-0.003-14.509c-0.621-5.353,0.679-9.813,5.279-12.278c8.252-4.419,16.567-9.021,25.376-12.021
		C452.496,366.625,467.291,378.47,467.285,390.188z"/>
	<path fill-rule="evenodd" clip-rule="evenodd" fill="#FFFFFF" d="M178.041,394.255c-0.525,10.467-3.62,19.159-9.962,26.676
		c-3.542,4.197-8.452,5.415-12.955,3.636c-4.92-1.948-9.033-5.379-9.075-12.063c-0.031-4.821-0.999-9.979-2.983-14.331
		c-1.406-3.079-4.982-5.408-8.02-7.423c-2.239-1.482-5.114-2.214-7.81-2.76c-11.849-2.4-16.75-10.303-17.881-21.6
		c-0.475-4.742,2.38-6.642,5.912-8.16c13.409-5.761,25.994-2.622,38.258,3.683c1.714,0.881,3.336,2.018,5.138,2.642
		C173.173,369.604,177.186,381.201,178.041,394.255z"/>
	<path fill-rule="evenodd" clip-rule="evenodd" fill="#FFFFFF" d="M111.635,226.191c0.785-1.358,2.12-4.113,3.857-6.587
		c4.563-6.491,8.799-13.314,14.087-19.172c7.898-8.746,10.582-8.767,20.607-3.074c3.919,2.227,8.025,4.163,11.785,6.628
		c11.925,7.818,14.084,19.252,6.385,31.222c-3.015,4.685-5.681,9.626-8.124,14.638c-2.683,5.502-7.005,7.919-12.892,8.047
		c-13.809,0.295-30.377-11.026-34.804-23.94C111.919,232.15,112.06,230.091,111.635,226.191z"/>
	<path fill-rule="evenodd" clip-rule="evenodd" fill="#FFFFFF" d="M167.286,127.198c-0.876,8.793-1.899,17.576-2.552,26.384
		c-0.231,3.11,1.311,6.522,0.53,9.383c-1.928,7.062-9.61,12.449-17.158,11.913c-7.687-0.548-15.417-1.586-22.92-3.315
		c-7.651-1.763-12.667-6.943-13.79-14.986c-1.465-10.483,0.012-26.25,12.927-31.284c1.17-0.456,2.396-1.144,3.218-2.062
		c9.262-10.348,21.369-7.939,32.821-6.808C167.371,117.113,167.286,117.982,167.286,127.198z"/>
	<path fill-rule="evenodd" clip-rule="evenodd" fill="#FFFFFF" d="M140.71,489.638c-8.629,0.351-14.202-3.308-17.354-11.56
		c-2.353-6.16-6.125-11.774-8.559-17.912c-0.738-1.858,0.149-6.073,1.539-6.79c9.416-4.85,16.837-11.703,23.512-19.829
		c4.942-6.014,9.801-6.326,16.303-1.735c3.42,2.416,6.112,5.87,9.106,8.881c4.541,4.565,8.688,9.616,13.669,13.631
		c8.653,6.975,8.951,13.64-1.224,19.787c-9.656,5.83-20.237,10.151-30.53,14.88C145.312,489.845,142.879,489.453,140.71,489.638z"/>
	<path fill-rule="evenodd" clip-rule="evenodd" fill="#FFFFFF" d="M307.936,35.246c4.79-0.422,10.699,3.413,14.387,11.372
		c2.592,5.599,5.623,11.004,8.628,16.399c4.368,7.845-0.856,20.474-9.581,23.944c-8.492,3.379-16.877,7.085-25.057,11.151
		c-4.996,2.484-8.422,2.14-11.082-3.025c-3.634-7.059-9.977-13.834-10.534-21.086c-0.705-9.15,1.688-19.388,5.621-27.814
		C284.465,37.298,294.567,35.894,307.936,35.246z"/>
	<path fill-rule="evenodd" clip-rule="evenodd" fill="#FFFFFF" d="M127.144,318.435c-11.009-0.101-17.362-4.309-19.857-13.045
		c-1.443-5.048-4.657-9.587-7.047-14.366c-1.765-3.53-1.712-6.353,0.895-10.06c4.645-6.61,7.872-14.194,12.095-21.126
		c4.159-6.826,6.652-7.071,13.805-3.596c6.312,3.067,12.895,5.578,19.37,8.308c4.509,1.9,7.296,4.815,7.861,10.08
		c0.401,3.738,1.598,7.602,3.346,10.933c2.654,5.053,2.614,9.751-1.182,13.689c-7.267,7.538-13.319,16.881-24.912,18.695
		C129.586,318.251,127.629,318.383,127.144,318.435z"/>
	<path fill-rule="evenodd" clip-rule="evenodd" fill="#FFFFFF" d="M418.8,363.159c1.427,9.264-5.56,13.007-11.506,17.164
		c-1.409,0.986-3.991,0.696-5.956,0.42c-6.359-0.896-12.65-2.381-19.031-3.044c-10.561-1.099-15.581-4.764-17.305-15.616
		c-1.392-8.778-0.955-17.781,3.551-25.947c10.512-19.046,29.902-20.521,43.412-3.261c3.512,4.484,5.795,9.339,5.475,15.465
		C417.182,353.242,418.295,358.218,418.8,363.159z"/>
	<path fill-rule="evenodd" clip-rule="evenodd" fill="#FFFFFF" d="M412.624,234.205c-12.835,0.026-21.698-6.244-25.036-15.907
		c-2.514-7.275-5.279-14.476-7.484-21.843c-2.021-6.755,0.365-9.756,7.398-9.562c8.032,0.221,16.082,1.453,24.073,1.099
		c8.998-0.4,18.006-1.708,26.884-3.314c7.855-1.421,8.92-0.358,7.939,7.312c-0.827,6.507-0.857,13.267-0.111,19.785
		c0.924,8.1-0.943,11.927-9.154,14.586C428.206,229.252,419.261,232.083,412.624,234.205z"/>
	<path fill-rule="evenodd" clip-rule="evenodd" fill="#FFFFFF" d="M423.871,347.362c2.576-9.567-4.87-15.737-11.274-22.656
		c-2.674-2.888-8.428-4.509-6.493-10.083c2.171-6.255,7.885-9.08,13.708-9.119c10.554-0.069,20.43-1.188,29.97-6.374
		c5.23-2.842,9.638,2.441,8.153,9.074c-1.213,5.42-4.248,11.086-3.442,16.163c1.582,9.991,5.178,19.677,8.153,29.424
		c0.807,2.644,2.595,4.976,3.509,7.6c0.587,1.679,1.203,4.484,0.375,5.262c-1.309,1.232-3.857,1.727-5.812,1.586
		c-8.805-0.634-17.568-1.94-26.379-2.354c-9.094-0.428-9.776-0.68-10.441-9.84C423.724,353.647,423.871,351.229,423.871,347.362z"/>
	<path fill-rule="evenodd" clip-rule="evenodd" fill="#FFFFFF" d="M324.291,325.41c0.919-13.299,2.953-25.858,17.035-32.231
		c2.807-1.27,5.101-4.159,7.053-6.739c7.137-9.435,18.698-8.507,24.262,1.832c3.958,7.357,8.498,14.404,12.824,21.562
		c2.417,4,1.557,6.58-2.738,8.741c-8.111,4.089-14.365,10.082-18.246,18.574c-2.102,4.602-6.621,5.774-10.759,3.36
		c-5.561-3.25-11.272-3.868-17.451-3.741C329.341,336.909,324.286,331.891,324.291,325.41z"/>
	<path fill-rule="evenodd" clip-rule="evenodd" fill="#FFFFFF" d="M107.881,133.157c0,4.066,0.641,7.496-0.109,10.588
		c-3.779,15.598-15.006,19.32-27.713,17.689c-2.817-0.361-6.516-5.221-7.21-8.55c-1.787-8.573-5.771-13.46-14.632-15.495
		c-10.732-2.468-12.912-10.583-4.546-17.544c8.849-7.362,18.591-13.766,28.439-19.771c6.422-3.915,12.693-1.274,16.19,5.318
		C103.077,114.396,110.246,122.572,107.881,133.157z"/>
	<path fill-rule="evenodd" clip-rule="evenodd" fill="#FFFFFF" d="M229.451,76.982c-2.151-1.219-4.886-2.157-6.804-3.963
		c-10.062-9.466-14.826-21.077-13.227-35c0.452-3.935,2.696-6.973,6.694-6.299c12.405,2.085,21.564-4.305,30.908-10.716
		c7.861-5.392,12.141-3.664,15.124,5.627c2.151,6.701,4.99,13.225,6.604,20.045c2.353,9.943-3.277,19.011-12.872,22.115
		c-6.509,2.107-13,4.269-19.519,6.348C234.346,75.782,232.271,76.237,229.451,76.982z"/>
	<path fill-rule="evenodd" clip-rule="evenodd" fill="#FFFFFF" d="M358.673,115.789c-9.708-0.001-20.588-9.12-21.41-19.573
		c-0.659-8.365-0.087-17.04,1.421-25.306c1.605-8.783,18.016-17.153,26.41-13.892c2.531,0.982,5.047,4.127,5.945,6.821
		c3.674,11.006,6.988,13.977,18.742,15.107c5.338,0.514,7.557,3.408,6.291,8.21C392.666,100.102,372.17,115.791,358.673,115.789z"/>
	<path fill-rule="evenodd" clip-rule="evenodd" fill="#FFFFFF" d="M314.713,240.646c8.434-5.815,15.811,0.02,22.883,2.903
		c8.29,3.381,15.439,1.898,22.635-1.806c4.811-2.475,10.178,0.102,10.26,5.571c0.141,9.342,0.037,18.688,0.037,28.636
		c-2.98,0.146-5.334,0.938-7.09,0.233c-7.861-3.154-12.544,0.424-17.617,6.167c-8.273,9.367-10.02,9.127-20.99,3.153
		c-3.184-1.735-6.617-3.025-9.975-4.431c-9.037-3.787-11.299-8.89-8.277-18.549c1.84-5.885,3.545-11.812,5.311-17.721
		C312.829,243.418,313.771,242.033,314.713,240.646z"/>
	<path fill-rule="evenodd" clip-rule="evenodd" fill="#FFFFFF" d="M418.06,131.579c-5.657-1.029-15.088-2.171-24.187-4.569
		c-8.016-2.114-9.549-10.58-4.046-17.358c4.468-5.502,9.321-10.848,12.829-16.938c7.865-13.656,24.881-15.964,35.628-4.151
		c4.017,4.412,9.497,7.459,13.855,11.606c3.875,3.689,3.815,7.823,0.863,12.693C445.914,124.554,434.791,131.579,418.06,131.579z"/>
	<path fill-rule="evenodd" clip-rule="evenodd" fill="#FFFFFF" d="M223.947,260.511c-0.506-7.511,1.683-13.246,6.863-18.326
		c5.132-5.029,8.819-11.639,14.286-16.177c2.736-2.272,8.339-2.628,12.024-1.606c1.99,0.551,2.605,5.857,3.956,8.969
		c2.165,4.988,3.427,10.823,6.871,14.702c5.784,6.515,13.096,11.652,19.537,17.617c3.165,2.931,5.116,6.694,2.368,10.967
		c-2.673,4.157-6.258,6.556-11.646,5.207c-2.287-0.572-4.806-0.548-7.186-0.361c-14.756,1.153-26.979-7.34-40.572-10.595
		C224.946,269.59,222.621,265.722,223.947,260.511z"/>
	<path fill-rule="evenodd" clip-rule="evenodd" fill="#FFFFFF" d="M314.713,240.646c-0.941,1.387-1.884,2.771-2.824,4.158
		c-1.718,3.089-3.521,6.135-5.139,9.276c-3.283,6.378-8.179,9.146-14.123,5.761c-10.813-6.158-22.348-12.096-25.512-26.023
		c-2.932-12.919-1.363-21.804,9.521-28.098c2.597-1.502,5.601-2.811,7.434-5.023c5.167-6.244,10.228-4.226,14.705,0.1
		c4.442,4.291,8.118,9.387,12.067,14.179c1.792,2.176,3.345,4.553,5.166,6.703C321.745,228.454,319.045,234.592,314.713,240.646z"/>
	<path fill-rule="evenodd" clip-rule="evenodd" fill="#FFFFFF" d="M324.172,296.624c-1.27,7.842-2.648,15.665-3.751,23.528
		c-0.384,2.747-0.661,5.729-0.001,8.357c2.701,10.754,2.035,11.816-7.545,17.766c-5.533,3.438-9.002,2.556-10.91-3.265
		c-3.098-9.456-10.338-13.708-19.043-16.69c-10.281-3.52-11.855-5.665-7.454-15.522c4.314-9.666,10.294-18.636,16.034-27.598
		c2.744-4.287,7.385-4.494,11.943-2.671c4.764,1.905,9.5,3.887,14.201,5.935C322.028,288.37,324.771,291.376,324.172,296.624z"/>
	<path fill-rule="evenodd" clip-rule="evenodd" fill="#FFFFFF" d="M101.112,48.804c-1.293,3.274-1.912,7.085-4.009,9.72
		c-5.75,7.221-5.412,15.058-4.109,23.41c0.424,2.715,0.305,7.08-1.294,8.183c-2.428,1.673-7.035,2.528-9.535,1.311
		c-7.265-3.54-14.004-8.189-20.766-12.682c-0.789-0.522-1.034-3.119-0.458-4.161c1.023-1.851,2.993-3.147,4.35-4.85
		c3.952-4.961,6.104-9.693,2.454-16.419c-4.667-8.604-8.375-17.834-11.445-27.14c-1.1-3.335-0.437-9.598,1.75-11.074
		c2.71-1.828,8.146-0.948,11.852,0.346c5.165,1.803,9.572,5.782,14.739,7.575C97.052,27.328,99.976,36.917,101.112,48.804z"/>
	<path fill-rule="evenodd" clip-rule="evenodd" fill="#FFFFFF" d="M281.995,419.345c-0.516,8.525-0.857,17.065-1.669,25.562
		c-0.199,2.09-1.516,5.332-3.031,5.818c-6.808,2.183-8.101,8.446-11.323,13.39c-1.986,3.047-4.453,6.54-7.532,7.779
		c-1.449,0.585-5.591-3.2-7.22-5.812c-4.824-7.729-10.212-15.456-13.045-23.961c-2.168-6.512-1.774-14.354-0.719-21.33
		c1.087-7.202,8.108-9.714,14.281-9.928c7.658-0.266,13.518-3.367,19.414-7.492c6.062-4.24,10.212-2.026,10.574,5.445
		c0.169,3.497,0.028,7.01,0.028,10.514C281.835,419.336,281.915,419.339,281.995,419.345z"/>
	<path fill-rule="evenodd" clip-rule="evenodd" fill="#FFFFFF" d="M303.304,367.374c-0.489-5.632,1.98-9.373,5.948-12.687
		c4.488-3.751,8.182-8.976,13.252-11.391c7.455-3.55,16.362-6.192,24.094-1.996c7.54,4.091,12.104,11.537,12.788,20.632
		c0.601,7.991-1.256,15.043-7.845,20.259c-0.168,0.134-0.312,0.304-0.461,0.464c-4.3,4.59-7.117,12.555-14.987,10.526
		c-10.952-2.823-23.153-4.329-29.737-15.528C304.598,374.661,304.281,370.824,303.304,367.374z"/>
	<path fill-rule="evenodd" clip-rule="evenodd" fill="#FFFFFF" d="M169.918,98.923c-0.281-11.843,1.883-22.786,9-32.838
		c8.773-12.395,21.35-11.43,30.511-0.065c9.888,12.264,8.467,24.646,3.551,37.366c-1.312,3.394-6.316,6.069-10.206,7.592
		c-5.919,2.316-12.343,3.346-18.554,4.909c-9.461,2.383-14.293-1.356-14.303-11.057C169.915,102.86,169.917,100.892,169.918,98.923z
		"/>
	<path fill-rule="evenodd" clip-rule="evenodd" fill="#FFFFFF" d="M300.959,371.631c-0.779,10.203-13.671,24.748-22.601,24.253
		c-1.972-0.108-4.839-1.92-5.546-3.657c-2.007-4.931-2.687-10.396-4.651-15.348c-4.006-10.1-8.457-20.024-12.829-29.973
		c-3.02-6.877-2.187-8.81,4.646-11.416c5.167-1.97,9.998-5.388,15.301-6.316c11.198-1.963,18.685,4.068,20.979,15.821
		C297.984,353.842,299.401,362.75,300.959,371.631z"/>
	<path fill-rule="evenodd" clip-rule="evenodd" fill="#FFFFFF" d="M137.097,333.791c-0.243,6.902-4.724,10.92-10.195,13.823
		c-6.429,3.41-13.016,6.644-19.837,9.119c-2.135,0.775-5.423-0.786-7.882-1.93c-4.792-2.226-9.139-5.603-14.088-7.25
		c-7.816-2.599-11.839-8.594-10.186-16.816c0.719-3.574,1.392-7.213,1.508-10.841c0.158-4.921,2.27-8.479,6.757-10.008
		c5.462-1.863,11.091-5.659,16.855-0.657c1.247,1.085,2.427,2.375,3.247,3.797c5.611,9.732,13.766,13.455,25.005,12.135
		C135.4,324.325,137.073,326.619,137.097,333.791z"/>
	<path fill-rule="evenodd" clip-rule="evenodd" fill="#FFFFFF" d="M154.182,113.16c-9.396-0.005-8.231-0.061-8.69-9.662
		c-0.316-6.622-3.894-13.319-6.959-19.515c-3.116-6.298-7.372-12.034-11.165-17.992c-2.73-4.287-1.598-7.457,3.125-8.702
		c8.447-2.229,16.929-4.639,25.555-5.799c9.44-1.27,18.257,12.353,14.59,21c-1.8,4.243-2.698,8.997-3.253,13.611
		c-0.824,6.864-0.959,13.81-1.433,20.718C165.382,115.121,159.074,112.842,154.182,113.16z"/>
	<path fill-rule="evenodd" clip-rule="evenodd" fill="#FFFFFF" d="M110.298,60.441c3.751,2.108,8.636,3.353,11.032,6.494
		c6.055,7.938,12.086,16.247,16.093,25.308c4.775,10.798,2.407,14.716-6.622,22.785c-11.362,10.154-16.858,8.74-24.264-5.031
		c-5.583-10.387-8.559-21.426-10.242-32.923C94.789,66.792,99.157,61.838,110.298,60.441z"/>
	<path fill-rule="evenodd" clip-rule="evenodd" fill="#FFFFFF" d="M141.475,181.687c2.58-0.803,3.586-1.44,4.53-1.356
		c7.234,0.634,13.462-0.324,18.579-6.677c1.697-2.106,7.226-3.044,10.029-1.971c7.711,2.952,14.893,7.279,22.31,11.011
		c4.989,2.511,5.796,6.523,2.606,10.483c-4.949,6.145-10.542,11.78-16.004,17.497c-2.833,2.965-6.097,2.362-8.122-0.72
		c-5.968-9.083-15.462-13.076-24.336-18.211C147.485,189.672,145.076,185.572,141.475,181.687z"/>
</g>
</svg>
